<svg width="40" height="40" viewBox="0 0 40 40" fill="none" xmlns="http://www.w3.org/2000/svg">
<path opacity="0.4" d="M22.4208 2.97839C21.0227 1.79561 18.9748 1.79561 17.5767 2.97839L2.52472 15.7124C1.99767 16.1583 1.93187 16.947 2.37775 17.474C2.82364 18.0011 3.61235 18.0669 4.1394 17.621L5.83206 16.189V32.0829C5.83206 35.3046 8.44373 37.9163 11.6654 37.9163H28.3321C31.5537 37.9163 34.1654 35.3046 34.1654 32.0829V16.189L35.858 17.621C36.3851 18.0669 37.1738 18.0011 37.6197 17.474C38.0656 16.947 37.9998 16.1583 37.4727 15.7124L22.4208 2.97839Z" fill="#353566"/>
<path d="M22.4208 2.97839C21.0227 1.79561 18.9748 1.79561 17.5767 2.97839L2.52472 15.7124C1.99767 16.1583 1.93187 16.947 2.37775 17.474C2.82364 18.0011 3.61235 18.0669 4.1394 17.621L19.1914 4.887C19.6574 4.49274 20.34 4.49274 20.8061 4.887L35.858 17.621C36.3851 18.0669 37.1738 18.0011 37.6197 17.474C38.0656 16.947 37.9998 16.1583 37.4727 15.7124L22.4208 2.97839Z" fill="#353566"/>
<path d="M14.582 25.8333C14.582 24.6827 15.5148 23.7499 16.6654 23.7499H23.332C24.4826 23.7499 25.4154 24.6827 25.4154 25.8333V37.9166H14.582V25.8333Z" fill="#353566"/>
</svg>
