<svg width="214" height="78" viewBox="0 0 214 78" fill="none" xmlns="http://www.w3.org/2000/svg">
<path d="M55.9175 46.4921H66.6512V62.9132H55.9175V76.9737H36.2901V62.9132L0 62.8105V45.9789L31.5878 1.02632H55.9175V46.4921ZM36.2901 21.5526L18.9118 46.4921H36.2901V21.5526Z" fill="url(#paint0_linear_122_51980)"/>
<path d="M107.295 78C100.411 78 94.4483 76.2895 89.4052 72.8684C84.3621 69.3789 80.4775 64.6921 77.7515 58.8079C75.0936 52.8553 73.7647 46.2526 73.7647 39C73.7647 31.7474 75.0936 25.1789 77.7515 19.2947C80.4775 13.3421 84.3621 8.65526 89.4052 5.23421C94.4483 1.74474 100.411 0 107.295 0C114.178 0 120.141 1.74474 125.184 5.23421C130.227 8.65526 134.078 13.3421 136.736 19.2947C139.462 25.1789 140.825 31.7474 140.825 39C140.825 46.2526 139.462 52.8553 136.736 58.8079C134.078 64.6921 130.227 69.3789 125.184 72.8684C120.141 76.2895 114.178 78 107.295 78ZM107.295 60.7579C111.316 60.7579 114.519 58.9105 116.904 55.2158C119.357 51.4526 120.584 46.0474 120.584 39C120.584 31.9526 119.357 26.5816 116.904 22.8868C114.519 19.1921 111.316 17.3447 107.295 17.3447C103.274 17.3447 100.037 19.1921 97.5833 22.8868C95.198 26.5816 94.0054 31.9526 94.0054 39C94.0054 46.0474 95.198 51.4526 97.5833 55.2158C100.037 58.9105 103.274 60.7579 107.295 60.7579Z" fill="url(#paint1_linear_122_51980)"/>
<path d="M203.266 46.4921H214V62.9132H203.266V76.9737H183.639V62.9132L147.349 62.8105V45.9789L178.937 1.02632H203.266V46.4921ZM183.639 21.5526L166.261 46.4921H183.639V21.5526Z" fill="url(#paint2_linear_122_51980)"/>
<defs>
<linearGradient id="paint0_linear_122_51980" x1="0" y1="39" x2="214" y2="39" gradientUnits="userSpaceOnUse">
<stop stop-color="#00B6F1"/>
<stop offset="0.326923" stop-color="#5555DB"/>
<stop offset="0.6875" stop-color="#FF6DB0"/>
<stop offset="1" stop-color="#F79B70"/>
</linearGradient>
<linearGradient id="paint1_linear_122_51980" x1="0" y1="39" x2="214" y2="39" gradientUnits="userSpaceOnUse">
<stop stop-color="#00B6F1"/>
<stop offset="0.326923" stop-color="#5555DB"/>
<stop offset="0.6875" stop-color="#FF6DB0"/>
<stop offset="1" stop-color="#F79B70"/>
</linearGradient>
<linearGradient id="paint2_linear_122_51980" x1="0" y1="39" x2="214" y2="39" gradientUnits="userSpaceOnUse">
<stop stop-color="#00B6F1"/>
<stop offset="0.326923" stop-color="#5555DB"/>
<stop offset="0.6875" stop-color="#FF6DB0"/>
<stop offset="1" stop-color="#F79B70"/>
</linearGradient>
</defs>
</svg>
