<svg width="20" height="20" viewBox="0 0 20 20" fill="none" xmlns="http://www.w3.org/2000/svg">
<g clip-path="url(#clip0_23_1234)">
<path fill-rule="evenodd" clip-rule="evenodd" d="M10.0002 0.208328C15.4079 0.208328 19.7918 4.59221 19.7918 9.99999C19.7918 15.4078 15.4079 19.7917 10.0002 19.7917C4.59237 19.7917 0.208496 15.4078 0.208496 9.99999C0.208496 4.59221 4.59237 0.208328 10.0002 0.208328ZM18.5418 9.99999C18.5418 5.28256 14.7176 1.45833 10.0002 1.45833C7.8664 1.45833 5.91538 2.24072 4.41832 3.53427L16.4659 15.5818C17.7594 14.0848 18.5418 12.1338 18.5418 9.99999ZM15.582 16.4657C14.0849 17.7593 12.1339 18.5417 10.0002 18.5417C5.28273 18.5417 1.4585 14.7174 1.4585 9.99999C1.4585 7.86623 2.24089 5.91521 3.53444 4.41816L15.582 16.4657Z" fill="#6B6B90"/>
</g>
<defs>
<clipPath id="clip0_23_1234">
<rect width="20" height="20" fill="white"/>
</clipPath>
</defs>
</svg>
