<svg width="24" height="24" viewBox="0 0 24 24" fill="none" xmlns="http://www.w3.org/2000/svg">
<g clip-path="url(#clip0_19_302)">
<path d="M4.00006 11.2499C4.00003 10.5595 4.55968 9.99982 5.25006 9.99982L18.7505 9.99982C19.4408 9.99982 20.0005 10.5595 20.0005 11.2498V12.4274C20.0005 13.0444 19.5503 13.5691 18.9406 13.6629L14.5106 14.3444C13.9562 14.4297 13.5804 14.9542 13.6779 15.5066L14.479 20.0454C14.751 21.5866 13.5654 22.9998 12.0004 22.9998V22.9998C10.4354 22.9998 9.2498 21.5868 9.52172 20.0456L10.3226 15.5065C10.42 14.9541 10.0442 14.4297 9.48982 14.3444L5.06004 13.6629C4.45028 13.5691 4.00014 13.0444 4.00012 12.4275L4.00006 11.2499Z" stroke="#353566" stroke-width="1.5" stroke-linecap="round" stroke-linejoin="round"/>
<path d="M7.11419 0.999817C5.96603 0.999817 5.05359 1.96435 5.11727 3.11076L5.5 9.99982H18.5L18.8827 3.11076C18.9464 1.96435 18.034 0.999817 16.8858 0.999817L7.11419 0.999817Z" stroke="#353566" stroke-width="1.5" stroke-linecap="round" stroke-linejoin="round"/>
<path fill-rule="evenodd" clip-rule="evenodd" d="M13.2532 0.999016L14.261 5.44429C14.3196 5.7029 14.6876 5.70431 14.7482 5.44615L15.7922 0.999016L13.2532 0.999016Z" fill="#353566"/>
</g>
<defs>
<clipPath id="clip0_19_302">
<rect width="24" height="24" fill="white"/>
</clipPath>
</defs>
</svg>
