<svg width="20" height="20" viewBox="0 0 20 20" fill="none" xmlns="http://www.w3.org/2000/svg">
<g clip-path="url(#clip0_23_1218)">
<path d="M14.1921 7.94194C14.4362 7.69786 14.4362 7.30213 14.1921 7.05805C13.948 6.81398 13.5523 6.81398 13.3082 7.05805L8.75016 11.6161L6.6921 9.55805C6.44803 9.31397 6.0523 9.31397 5.80822 9.55805C5.56414 9.80213 5.56414 10.1979 5.80822 10.4419L8.30822 12.9419C8.5523 13.186 8.94803 13.186 9.1921 12.9419L14.1921 7.94194Z" fill="#353566"/>
<path fill-rule="evenodd" clip-rule="evenodd" d="M10.0002 0.208328C4.59237 0.208328 0.208496 4.59221 0.208496 9.99999C0.208496 15.4078 4.59237 19.7917 10.0002 19.7917C15.4079 19.7917 19.7918 15.4078 19.7918 9.99999C19.7918 4.59221 15.4079 0.208328 10.0002 0.208328ZM1.4585 9.99999C1.4585 5.28256 5.28273 1.45833 10.0002 1.45833C14.7176 1.45833 18.5418 5.28256 18.5418 9.99999C18.5418 14.7174 14.7176 18.5417 10.0002 18.5417C5.28273 18.5417 1.4585 14.7174 1.4585 9.99999Z" fill="#353566"/>
</g>
<defs>
<clipPath id="clip0_23_1218">
<rect width="20" height="20" fill="white"/>
</clipPath>
</defs>
</svg>
