<svg width="24" height="24" viewBox="0 0 24 24" fill="none" xmlns="http://www.w3.org/2000/svg">
<path d="M5.3156 8.48586C5.48501 8.10787 5.92876 7.93879 6.30675 8.1082L12 10.6599L17.6933 8.1082C18.0713 7.93879 18.515 8.10787 18.6844 8.48586C18.8538 8.86384 18.6848 9.3076 18.3068 9.47701L12.75 11.9675L12.75 16.9996C12.75 17.4138 12.4142 17.7496 12 17.7496C11.5858 17.7496 11.25 17.4138 11.25 16.9996L11.25 11.9675L5.69326 9.47701C5.31527 9.3076 5.14619 8.86384 5.3156 8.48586Z" fill="#353566"/>
<path fill-rule="evenodd" clip-rule="evenodd" d="M10.2073 1.64707C11.344 1.1183 12.656 1.11829 13.7927 1.64707L20.2927 4.67096C21.7915 5.36823 22.75 6.87131 22.75 8.52438V15.5457C22.75 17.2114 21.7769 18.7236 20.2609 19.4138L13.7609 22.3727C12.6422 22.882 11.3578 22.882 10.2392 22.3727L3.73915 19.4138C2.22311 18.7236 1.25 17.2114 1.25 15.5457V8.52438C1.25 6.87132 2.20852 5.36823 3.70733 4.67096L10.2073 1.64707ZM13.16 3.0071C12.4245 2.66495 11.5755 2.66495 10.84 3.0071L4.34004 6.03099C3.37022 6.48216 2.75 7.45475 2.75 8.52438V15.5457C2.75 16.6235 3.37966 17.602 4.36063 18.0486L10.8606 21.0075C11.5845 21.3371 12.4155 21.3371 13.1394 21.0075L19.6394 18.0486C20.6203 17.602 21.25 16.6235 21.25 15.5457V8.52438C21.25 7.45475 20.6298 6.48216 19.66 6.03099L13.16 3.0071Z" fill="#353566"/>
</svg>
