<svg width="40" height="40" viewBox="0 0 40 40" fill="none" xmlns="http://www.w3.org/2000/svg">
<path d="M27.3875 2.08334H10.9455C9.35809 2.08333 8.09049 2.08333 7.06673 2.16697C6.0167 2.25276 5.11357 2.43273 4.28407 2.85538C2.95126 3.53448 1.86764 4.6181 1.18854 5.95091C0.765894 6.78041 0.585921 7.68354 0.500131 8.73357C0.416486 9.75733 0.416494 11.0249 0.416504 12.6123V20.721C0.416501 21.3227 0.416497 21.8787 0.421051 22.3926C0.418041 22.428 0.416504 22.4638 0.416504 22.5C0.416504 22.5452 0.418902 22.5898 0.423576 22.6338C0.432619 23.3747 0.453218 24.0256 0.500131 24.5998C0.585921 25.6498 0.765894 26.5529 1.18854 27.3824C1.86764 28.7153 2.95126 29.7989 4.28407 30.478C5.11357 30.9006 6.0167 31.0806 7.06673 31.1664C8.09047 31.25 9.358 31.25 10.9453 31.25H14.5832V33.3333C14.5832 34.4839 13.6504 35.4167 12.4998 35.4167H11.6665C10.9761 35.4167 10.4165 35.9763 10.4165 36.6667C10.4165 37.357 10.9761 37.9167 11.6665 37.9167H19.5909C20.2812 37.9167 20.8409 37.357 20.8409 36.6667C20.8409 35.9763 20.2812 35.4167 19.5909 35.4167H16.5834C16.9029 34.7916 17.0832 34.0835 17.0832 33.3333V31.2104C17.6218 31.0713 18.0197 30.5821 18.0197 30C18.0197 29.3097 17.46 28.75 16.7697 28.75H10.9998C9.34573 28.75 8.18032 28.749 7.27031 28.6747C6.37489 28.6015 5.83737 28.4636 5.41905 28.2505C4.55664 27.811 3.85548 27.1099 3.41606 26.2475C3.20291 25.8291 3.06499 25.2916 2.99183 24.3962C2.97533 24.1942 2.96244 23.9797 2.95237 23.75H18.0069C18.6972 23.75 19.2569 23.1904 19.2569 22.5C19.2569 21.8097 18.6972 21.25 18.0069 21.25H2.91668L2.9165 12.6667C2.9165 11.0126 2.91748 9.84716 2.99183 8.93715C3.06499 8.04173 3.20291 7.50421 3.41606 7.08589C3.85548 6.22348 4.55664 5.52232 5.41905 5.0829C5.83737 4.86975 6.37489 4.73183 7.2703 4.65867C8.18032 4.58432 9.34572 4.58334 10.9998 4.58334H27.3332C28.9873 4.58334 30.1527 4.58432 31.0627 4.65867C31.9581 4.73183 32.4956 4.86975 32.914 5.0829C33.7764 5.52232 34.4775 6.22348 34.9169 7.08589C35.1301 7.50421 35.268 8.04173 35.3412 8.93715C35.4155 9.84716 35.4165 11.0126 35.4165 12.6667V16.7838C35.4165 17.4741 35.9761 18.0338 36.6665 18.0338C37.3569 18.0338 37.9165 17.4741 37.9165 16.7838V12.6123C37.9165 11.025 37.9165 9.75731 37.8329 8.73357C37.7471 7.68354 37.5671 6.78041 37.1445 5.95091C36.4654 4.6181 35.3817 3.53448 34.0489 2.85538C33.2194 2.43273 32.3163 2.25276 31.2663 2.16697C30.2425 2.08332 28.9749 2.08333 27.3875 2.08334Z" fill="#353566"/>
<path d="M34.0697 25.5134C34.4765 25.9202 34.4765 26.5798 34.0697 26.9866L29.9031 31.1532C29.7072 31.3491 29.4414 31.4589 29.1644 31.4583C28.8874 31.4578 28.622 31.3469 28.4269 31.1502L25.9269 28.6296C25.5218 28.2212 25.5245 27.5616 25.933 27.1565C26.3414 26.7514 27.001 26.7541 27.4061 27.1626L29.1695 28.9405L32.5966 25.5134C33.0034 25.1066 33.6629 25.1066 34.0697 25.5134Z" fill="#353566"/>
<path fill-rule="evenodd" clip-rule="evenodd" d="M20.4165 28.3333C20.4165 23.0406 24.7071 18.75 29.9998 18.75C35.2926 18.75 39.5832 23.0406 39.5832 28.3333C39.5832 33.6261 35.2926 37.9167 29.9998 37.9167C24.7071 37.9167 20.4165 33.6261 20.4165 28.3333ZM29.9998 21.25C26.0878 21.25 22.9165 24.4213 22.9165 28.3333C22.9165 32.2454 26.0878 35.4167 29.9998 35.4167C33.9119 35.4167 37.0832 32.2454 37.0832 28.3333C37.0832 24.4213 33.9119 21.25 29.9998 21.25Z" fill="#353566"/>
</svg>
