<svg width="16" height="16" viewBox="0 0 16 16" fill="none" xmlns="http://www.w3.org/2000/svg">
<g clip-path="url(#clip0_64_2118)">
<path d="M13.196 3.06932C13.196 3.06932 13.1947 3.06865 13.1947 3.06732C12.5248 2.36347 11.7193 1.80268 10.8267 1.41883C9.93409 1.03498 8.97295 0.836024 8.00132 0.833984C7.04265 0.833984 6.11865 1.01932 5.25932 1.38198L5.25732 1.38265L5.24998 1.38532C4.07169 1.87221 3.04534 2.66586 2.27764 3.68374C1.50995 4.70163 1.02895 5.90658 0.884651 7.17332L0.883984 7.18265V7.18532C0.850651 7.43865 0.833984 7.70532 0.833984 7.99998C0.833984 9.94598 1.59998 11.764 2.98998 13.1167C4.32431 14.4343 6.12537 15.1712 8.00065 15.1667C8.98269 15.1703 9.95455 14.9677 10.8533 14.572L10.8587 14.5693L10.864 14.5667C13.3226 13.494 14.964 11.174 15.1453 8.51798C15.16 8.35065 15.1673 8.17532 15.1673 8.00065C15.1673 6.15865 14.4673 4.40798 13.1967 3.06998L13.196 3.06932ZM9.81465 7.67732C9.64665 7.25573 9.46252 6.84076 9.26265 6.43332C10.5423 5.83684 11.7285 5.05759 12.784 4.11998C13.6365 5.16553 14.1195 6.4635 14.158 7.81198C12.7369 7.45389 11.2552 7.40794 9.81465 7.67732ZM12.092 3.39732C11.1043 4.27029 9.99465 4.99457 8.79798 5.54732C8.10732 4.29732 7.27567 3.1306 6.31932 2.06998C6.86571 1.91277 7.43143 1.83288 7.99998 1.83265C9.50732 1.83265 10.9693 2.39932 12.092 3.39665V3.39732ZM5.32398 2.46132C6.31285 3.51321 7.16902 4.68237 7.87332 5.94265C5.99268 6.65995 3.97556 6.94808 1.96932 6.78598C2.15487 5.85429 2.55454 4.97852 3.13675 4.22784C3.71896 3.47717 4.46776 2.87284 5.32398 2.46132ZM1.83998 7.78065C2.2258 7.81353 2.61277 7.8311 2.99998 7.83332C4.83932 7.83332 6.63065 7.48398 8.34065 6.82398C8.51998 7.18732 8.68398 7.55132 8.83332 7.91798C6.56699 8.57648 4.60095 10.0041 3.27332 11.9553C2.3384 10.85 1.82787 9.44769 1.83332 7.99998C1.83332 7.92332 1.83732 7.85332 1.83998 7.78065ZM3.99465 12.6747C5.204 10.8152 7.04768 9.45836 9.18265 8.85665C9.73517 10.4426 10.0545 12.1003 10.1307 13.778C9.44987 14.0348 8.72827 14.1665 8.00065 14.1667C6.52937 14.1682 5.10635 13.6384 3.99465 12.6747ZM11.1006 13.3193C10.9933 11.7213 10.6769 10.1443 10.1593 8.62865C11.4699 8.4099 12.8125 8.47974 14.0933 8.83332C13.9716 9.76038 13.6384 10.6471 13.1195 11.4249C12.6006 12.2027 11.9099 12.8509 11.1006 13.3193Z" fill="white"/>
</g>
<defs>
<clipPath id="clip0_64_2118">
<rect width="16" height="16" fill="white"/>
</clipPath>
</defs>
</svg>
