<svg width="16" height="16" viewBox="0 0 16 16" fill="none" xmlns="http://www.w3.org/2000/svg">
<g clip-path="url(#clip0_24_263)">
<path d="M8.72245 2.45444C8.72245 1.19033 7.15945 0.678257 6.39991 1.62848L0.967982 8.42576C0.2679 9.30207 0.906918 10.5683 1.98463 10.5683H4.75228V14.6831C4.75228 15.9467 6.31474 16.4593 7.07482 15.5096L12.5057 8.71822C13.2063 7.84191 12.5673 6.57566 11.489 6.57566H8.72191V2.45498L8.72245 2.45444Z" fill="url(#paint0_linear_24_263)"/>
<path d="M14.8654 0.042468C15.1343 -0.112332 15.4353 0.188162 15.2799 0.457054L14.3222 2.12022C14.2681 2.21395 14.2681 2.32965 14.3222 2.42339L15.2799 4.08655C15.4347 4.35544 15.1343 4.65647 14.8654 4.50114L13.2022 3.54341C13.1085 3.48931 12.9928 3.48931 12.899 3.54341L11.2359 4.50114C10.967 4.65594 10.6659 4.35544 10.8213 4.08655L11.779 2.42339C11.8331 2.32965 11.8331 2.21395 11.779 2.12022L10.8213 0.457054C10.6665 0.188162 10.967 -0.112868 11.2359 0.042468L12.899 1.00019C12.9928 1.05429 13.1085 1.05429 13.2022 1.00019L14.8654 0.042468Z" fill="#F58855"/>
</g>
<defs>
<linearGradient id="paint0_linear_24_263" x1="10.9841" y1="4.33749" x2="2.7955" y2="12.563" gradientUnits="userSpaceOnUse">
<stop stop-color="#6060FF"/>
<stop offset="1" stop-color="#5555DD"/>
</linearGradient>
<clipPath id="clip0_24_263">
<rect width="16" height="16" fill="white"/>
</clipPath>
</defs>
</svg>
