<svg width="28" height="28" viewBox="0 0 28 28" fill="none" xmlns="http://www.w3.org/2000/svg">
<path d="M9.25167 28C10.5117 27.9995 11.72 27.5077 12.611 26.6326C13.502 25.7576 14.0028 24.5709 14.0033 23.3334V18.6669H9.25167C7.99145 18.6669 6.78284 19.1586 5.89173 20.0337C5.00062 20.9089 4.5 22.0958 4.5 23.3334C4.5 24.5711 5.00062 25.758 5.89173 26.6332C6.78284 27.5083 7.99145 28 9.25167 28Z" fill="#0ACF83"/>
<path d="M4.5 13.9984C4.50051 12.7609 5.0013 11.5743 5.8923 10.6993C6.78329 9.82422 7.9916 9.33241 9.25167 9.33191H14.0033V18.6649H9.25167C7.9916 18.6644 6.78329 18.1726 5.8923 17.2976C5.0013 16.4226 4.50051 15.2359 4.5 13.9984Z" fill="#A259FF"/>
<path d="M4.5 4.66652C4.50051 3.42904 5.0013 2.24238 5.8923 1.36735C6.78329 0.492313 7.9916 0.000501988 9.25167 0H14.0033V9.33304H9.25167C7.9916 9.33254 6.78329 8.84073 5.8923 7.96569C5.0013 7.09066 4.50051 5.904 4.5 4.66652Z" fill="#F24E1E"/>
<path d="M13.9966 0H18.7483C20.0085 0 21.2171 0.49165 22.1082 1.36679C22.9994 2.24193 23.5 3.42888 23.5 4.66652C23.5 5.90416 22.9994 7.09111 22.1082 7.96625C21.2171 8.84139 20.0085 9.33304 18.7483 9.33304H13.9966V0Z" fill="#FF7262"/>
<path d="M23.5 13.9984C23.5 14.9214 23.2213 15.8236 22.6992 16.591C22.1771 17.3584 21.4349 17.9565 20.5667 18.3097C19.6984 18.6629 18.743 18.7553 17.8213 18.5753C16.8996 18.3952 16.0529 17.9508 15.3884 17.2982C14.7238 16.6455 14.2713 15.814 14.0879 14.9088C13.9046 14.0036 13.9987 13.0653 14.3583 12.2126C14.718 11.3599 15.327 10.6311 16.1084 10.1184C16.8898 9.60559 17.8085 9.33191 18.7483 9.33191C20.0084 9.33241 21.2167 9.82422 22.1077 10.6993C22.9987 11.5743 23.4995 12.7609 23.5 13.9984Z" fill="#1ABCFE"/>
</svg>
