<svg width="40" height="40" viewBox="0 0 40 40" fill="none" xmlns="http://www.w3.org/2000/svg">
<path fill-rule="evenodd" clip-rule="evenodd" d="M13.904 2.08334L25.0385 2.08335C26.8463 2.08335 28.5807 2.79952 29.8601 4.07541C31.1396 5.35142 31.859 7.08277 31.859 8.88877C31.859 10.6948 31.1396 12.4261 29.8601 13.7021C29.5815 13.9799 29.2814 14.2312 28.9636 14.4543C30.7001 15.6881 31.833 17.7159 31.833 20.0082C31.833 23.7684 28.7848 26.8165 25.0246 26.8165C23.3938 26.8165 21.8969 26.2432 20.7246 25.287V26.8038H20.7002V31.1085C20.7002 34.8686 17.652 37.9168 13.8918 37.9168C10.1317 37.9168 7.0835 34.8686 7.0835 31.1085C7.0835 28.813 8.21951 26.7829 9.96 25.5496C9.64945 25.3299 9.3559 25.0832 9.08305 24.8111C7.80383 23.5353 7.08423 21.8045 7.0835 19.9989C7.08423 18.1933 7.80383 16.4614 9.08305 15.1857C9.35741 14.9121 9.65269 14.6642 9.96514 14.4436C9.65269 14.223 9.35741 13.9751 9.08305 13.7015C7.80383 12.4257 7.08423 10.6949 7.0835 8.88927C7.08423 7.08363 7.80383 5.35181 9.08305 4.07607C10.3622 2.80043 12.0966 2.08407 13.904 2.08334ZM18.2246 24.3001H13.8918C13.8481 24.3001 13.8045 24.3006 13.761 24.3014C12.6662 24.2647 11.6246 23.815 10.8484 23.0409C10.0387 22.2334 9.58409 21.139 9.5835 19.9984C9.58409 18.8578 10.0387 17.7634 10.8484 16.9559C11.6398 16.1666 12.7072 15.7145 13.8256 15.6937L13.9035 15.6942H18.2246V19.6699C18.2191 19.782 18.2163 19.8948 18.2163 20.0082C18.2163 20.1216 18.2191 20.2344 18.2246 20.3465V24.3001ZM13.7577 26.8022C11.4403 26.8731 9.5835 28.7739 9.5835 31.1085C9.5835 33.4879 11.5124 35.4168 13.8918 35.4168C16.2713 35.4168 18.2002 33.4879 18.2002 31.1085V26.8038H13.904C13.8554 26.8038 13.8062 26.8032 13.7577 26.8022ZM25.0246 15.6999C22.7355 15.6999 20.8634 17.4851 20.7246 19.7393V20.2771C20.8634 22.5313 22.7355 24.3165 25.0246 24.3165C27.4041 24.3165 29.333 22.3876 29.333 20.0082C29.333 17.6288 27.4041 15.6999 25.0246 15.6999ZM18.2246 4.58334V13.193H13.904L13.8256 13.1934C12.7072 13.1727 11.6398 12.7205 10.8484 11.9313C10.0387 11.1237 9.58409 10.0293 9.5835 8.88877C9.58409 7.74818 10.0387 6.65379 10.8484 5.84623C11.6583 5.03856 12.7573 4.58394 13.904 4.58334H18.2246ZM20.7261 13.1942V4.58335L25.0385 4.58335C26.1854 4.58335 27.2847 5.03778 28.0947 5.84558C28.9046 6.65326 29.359 7.748 29.359 8.88877C29.359 10.0295 28.9046 11.1243 28.0947 11.932C27.2847 12.7398 26.1854 13.1942 25.0385 13.1942L20.7261 13.1942Z" fill="#353566"/>
</svg>
