<svg width="24" height="24" viewBox="0 0 24 24" fill="none" xmlns="http://www.w3.org/2000/svg">
<path fill-rule="evenodd" clip-rule="evenodd" d="M16.4089 1.91019C17.2876 1.03151 18.7122 1.0315 19.5909 1.91018L22.094 4.41334C22.9727 5.29202 22.9727 6.71664 22.094 7.59532L19.5909 10.0985C18.7122 10.9772 17.2876 10.9772 16.4089 10.0985L13.9057 7.59532C13.0271 6.71664 13.027 5.29202 13.9057 4.41334L16.4089 1.91019ZM18.5302 2.97084C18.2373 2.67795 17.7624 2.67795 17.4695 2.97085L14.9664 5.474C14.6735 5.76689 14.6735 6.24177 14.9664 6.53466L17.4695 9.03782C17.7624 9.33071 18.2373 9.33071 18.5302 9.03782L21.0334 6.53466C21.3263 6.24177 21.3263 5.7669 21.0334 5.474L18.5302 2.97084Z" fill="#353566"/>
<path fill-rule="evenodd" clip-rule="evenodd" d="M3.74988 1.49998C2.50724 1.49998 1.49988 2.50734 1.49988 3.74998V8.24998C1.49988 9.49262 2.50724 10.5 3.74988 10.5H8.24988C9.49252 10.5 10.4999 9.49262 10.4999 8.24998V3.74998C10.4999 2.50734 9.49252 1.49998 8.24988 1.49998H3.74988ZM2.99988 3.74998C2.99988 3.33577 3.33566 2.99998 3.74988 2.99998H8.24988C8.66409 2.99998 8.99988 3.33577 8.99988 3.74998V8.24998C8.99988 8.66419 8.66409 8.99998 8.24988 8.99998H3.74988C3.33566 8.99998 2.99988 8.66419 2.99988 8.24998V3.74998Z" fill="#353566"/>
<path fill-rule="evenodd" clip-rule="evenodd" d="M17.9999 13.25C15.3765 13.25 13.2499 15.3766 13.2499 18C13.2499 20.6233 15.3765 22.75 17.9999 22.75C20.6232 22.75 22.7499 20.6233 22.7499 18C22.7499 15.3766 20.6232 13.25 17.9999 13.25ZM14.7499 18C14.7499 16.2051 16.205 14.75 17.9999 14.75C19.7948 14.75 21.2499 16.2051 21.2499 18C21.2499 19.7949 19.7948 21.25 17.9999 21.25C16.205 21.25 14.7499 19.7949 14.7499 18Z" fill="#353566"/>
<path fill-rule="evenodd" clip-rule="evenodd" d="M7.71923 14.7601C7.00121 13.4133 4.99867 13.4133 4.28064 14.7601L1.46446 20.0424C0.767016 21.3506 1.82168 22.75 3.18376 22.75H8.81612C10.1782 22.75 11.2329 21.3507 10.5354 20.0424L7.71923 14.7601ZM5.60428 15.4658C5.67307 15.3367 5.81492 15.25 5.99994 15.25C6.18496 15.25 6.32681 15.3367 6.39559 15.4658L9.21177 20.7481C9.26903 20.8555 9.26016 20.9634 9.19559 21.0614C9.12869 21.1629 8.99972 21.25 8.81612 21.25H3.18376C3.00015 21.25 2.87119 21.1629 2.80429 21.0614C2.73972 20.9634 2.73085 20.8555 2.7881 20.7481L5.60428 15.4658Z" fill="#353566"/>
</svg>
