<svg width="40" height="40" viewBox="0 0 40 40" fill="none" xmlns="http://www.w3.org/2000/svg">
<path fill-rule="evenodd" clip-rule="evenodd" d="M17.5767 2.97839C18.9748 1.79561 21.0227 1.79561 22.4208 2.97839L37.4727 15.7124C37.9998 16.1583 38.0656 16.947 37.6197 17.474C37.1738 18.0011 36.3851 18.0669 35.858 17.621L34.1654 16.189V32.0829C34.1654 35.3046 31.5537 37.9163 28.3321 37.9163H11.6654C8.44373 37.9163 5.83206 35.3046 5.83206 32.0829V16.189L4.1394 17.621C3.61235 18.0669 2.82364 18.0011 2.37775 17.474C1.93187 16.947 1.99767 16.1583 2.52472 15.7124L17.5767 2.97839ZM24.9987 24.9999V35.4166H14.9987V24.9999C14.9987 24.0795 15.7449 23.3333 16.6654 23.3333H23.332C24.2525 23.3333 24.9987 24.0795 24.9987 24.9999Z" fill="#353566"/>
</svg>
