<svg width="40" height="40" viewBox="0 0 40 40" fill="none" xmlns="http://www.w3.org/2000/svg">
<path fill-rule="evenodd" clip-rule="evenodd" d="M17.5767 2.97839C18.9748 1.79561 21.0227 1.79561 22.4208 2.97839L37.4727 15.7124C37.9998 16.1583 38.0656 16.947 37.6197 17.474C37.1738 18.0011 36.3851 18.0669 35.858 17.621L34.1654 16.189V29.3859C34.1654 30.6243 34.1654 31.6297 34.0988 32.445C34.03 33.2866 33.8841 34.0354 33.5296 34.7312C32.9703 35.8288 32.0779 36.7212 30.9803 37.2805C30.2845 37.635 29.5357 37.7809 28.6941 37.8497C27.8788 37.9163 26.8736 37.9163 25.6352 37.9163H25.0288C25.0188 37.9165 25.0088 37.9166 24.9987 37.9166H14.9987C14.9886 37.9166 14.9786 37.9165 14.9686 37.9163H14.3624C13.124 37.9163 12.1186 37.9163 11.3033 37.8497C10.4617 37.7809 9.71289 37.635 9.01709 37.2805C7.91948 36.7212 7.02709 35.8288 6.46783 34.7312C6.1133 34.0354 5.96739 33.2866 5.89863 32.445C5.83201 31.6296 5.83202 30.6244 5.83203 29.3859L5.83203 16.189L4.1394 17.621C3.61235 18.0669 2.82364 18.0011 2.37775 17.474C1.93187 16.947 1.99767 16.1583 2.52472 15.7124L17.5767 2.97839ZM23.7487 35.4163H16.2487V24.9999C16.2487 24.7698 16.4352 24.5833 16.6654 24.5833H23.332C23.5622 24.5833 23.7487 24.7698 23.7487 24.9999V35.4163ZM26.2487 35.4158V24.9999C26.2487 23.3891 24.9429 22.0833 23.332 22.0833H16.6654C15.0545 22.0833 13.7487 23.3891 13.7487 24.9999V35.4158C12.7926 35.4141 12.0821 35.405 11.5068 35.358C10.8199 35.3018 10.4367 35.198 10.1521 35.0529C9.52486 34.7334 9.01492 34.2234 8.69534 33.5962C8.55032 33.3116 8.44645 32.9284 8.39032 32.2415C8.333 31.5399 8.33203 30.637 8.33203 29.3329V14.074L19.1914 4.887C19.6574 4.49274 20.34 4.49274 20.8061 4.887L31.6654 14.074V29.3329C31.6654 30.637 31.6644 31.5399 31.6071 32.2415C31.5509 32.9284 31.4471 33.3116 31.3021 33.5962C30.9825 34.2234 30.4725 34.7334 29.8453 35.0529C29.5607 35.198 29.1775 35.3018 28.4906 35.358C27.9153 35.405 27.2048 35.4141 26.2487 35.4158Z" fill="#353566"/>
</svg>
