<svg width="40" height="40" viewBox="0 0 40 40" fill="none" xmlns="http://www.w3.org/2000/svg">
<path opacity="0.4" d="M14.9987 36.6663H11.6654C9.13406 36.6663 7.08203 34.6142 7.08203 32.0829V13.4942L18.384 3.9327C19.3161 3.14418 20.6813 3.14418 21.6134 3.9327L32.9154 13.4942V32.0829C32.9154 34.6142 30.8633 36.6663 28.332 36.6663H24.9987V24.9999C24.9987 24.0795 24.2525 23.3333 23.332 23.3333H16.6654C15.7449 23.3333 14.9987 24.0795 14.9987 24.9999V36.6663Z" fill="#353566"/>
<path fill-rule="evenodd" clip-rule="evenodd" d="M17.8471 3.29658C19.0898 2.24522 20.9102 2.24522 22.1529 3.29658L37.2049 16.0306C37.5563 16.3278 37.6001 16.8536 37.3029 17.205C37.0056 17.5564 36.4798 17.6002 36.1285 17.303L33.75 15.2908V29.3698C33.75 30.622 33.75 31.6129 33.6848 32.4112C33.6181 33.227 33.4792 33.9148 33.1596 34.5421C32.6403 35.5613 31.8117 36.39 30.7924 36.9093C30.1652 37.2289 29.4773 37.3678 28.6615 37.4345C27.8632 37.4997 26.8724 37.4997 25.6201 37.4997H25.0246C25.0164 37.4999 25.0082 37.5 25 37.5H15C14.9918 37.5 14.9836 37.4999 14.9754 37.4997H14.3799C13.1276 37.4997 12.1368 37.4997 11.3385 37.4345C10.5227 37.3678 9.83482 37.2289 9.20755 36.9093C8.18834 36.39 7.3597 35.5613 6.84038 34.5421C6.52077 33.9148 6.38187 33.227 6.31521 32.4112C6.24999 31.6129 6.24999 30.6221 6.25 29.3698L6.25 15.2908L3.87158 17.303C3.52021 17.6002 2.9944 17.5564 2.69715 17.205C2.39989 16.8536 2.44376 16.3278 2.79512 16.0306L17.8471 3.29658ZM24.1667 35.833H15.8333V25C15.8333 24.5398 16.2064 24.1667 16.6667 24.1667H23.3333C23.7936 24.1667 24.1667 24.5398 24.1667 25V35.833ZM25.8333 35.833V25C25.8333 23.6193 24.714 22.5 23.3333 22.5H16.6667C15.286 22.5 14.1667 23.6193 14.1667 25V35.833C12.9995 35.8327 12.1494 35.8285 11.4742 35.7733C10.7615 35.7151 10.3174 35.6042 9.9642 35.4243C9.25859 35.0647 8.68492 34.4911 8.32539 33.7855C8.14545 33.4323 8.03458 32.9882 7.97634 32.2755C7.91732 31.553 7.91667 30.6302 7.91667 29.333V13.8808L18.9236 4.56898C19.5449 4.0433 20.4551 4.0433 21.0765 4.56898L32.0833 13.8808V29.333C32.0833 30.6302 32.0827 31.553 32.0237 32.2755C31.9654 32.9882 31.8545 33.4323 31.6746 33.7855C31.3151 34.4911 30.7414 35.0647 30.0358 35.4243C29.6826 35.6042 29.2385 35.7151 28.5258 35.7733C27.8506 35.8285 27.0005 35.8327 25.8333 35.833Z" fill="#353566"/>
</svg>
