<svg width="28" height="28" viewBox="0 0 28 28" fill="none" xmlns="http://www.w3.org/2000/svg">
<path fill-rule="evenodd" clip-rule="evenodd" d="M23.267 12.1841C24.6573 13.0628 25.1787 14.6444 24.9469 16.1088L23.3249 24.954C22.9773 26.7113 21.4712 28 19.6754 28H8.32122C6.52541 28 5.01924 26.7113 4.67168 24.954L3.04966 16.1088C2.81793 14.7029 3.39724 13.1213 4.78754 12.2427C5.59855 11.6569 5.77235 10.6611 4.78754 10.3096C3.39724 9.78242 3.68687 8.08368 5.0772 8.08368H13.5349C14.8673 8.08368 16.4893 9.0795 16.4893 12.3013C16.4893 15.523 14.9831 15.2301 14.9831 17.5146C14.9831 18.5105 15.7941 19.5648 16.7789 19.682C18.4589 19.8577 19.4437 19.2134 19.4437 16.8703C19.4437 14.4686 18.0534 13.3556 18.0534 11.364C18.0534 8.96232 19.5595 8.02508 20.5443 8.02508H22.9774C24.3677 8.02508 24.6573 9.72382 23.267 10.251C22.2822 10.6611 22.456 11.6569 23.267 12.1841ZM5.94612 6.85356C5.36683 6.85356 4.84545 6.32636 4.84545 5.74058C4.84545 4.3933 8.20536 3.39748 12.0287 3.39748C12.3763 3.39748 12.608 3.39748 12.608 3.1046C12.608 2.5774 11.4494 2.40168 11.4494 1.52302C11.4494 0.58578 12.5501 0 13.9404 0C15.3307 0 16.4313 0.58578 16.4313 1.52302C16.4313 2.40168 15.2727 2.51884 15.2727 3.1046C15.2727 3.28034 15.4465 3.39748 15.852 3.39748C19.6754 3.39748 23.0932 4.33472 23.0932 5.74058C23.0932 6.32636 22.6298 6.85356 21.9925 6.85356H5.94612Z" fill="#2CACF4"/>
</svg>
