<svg width="16" height="16" viewBox="0 0 16 16" fill="none" xmlns="http://www.w3.org/2000/svg">
<path d="M8.00391 4.41172C6.01685 4.41172 4.41408 6.01484 4.41408 8.00234C4.41408 9.98984 6.01685 11.593 8.00391 11.593C9.99096 11.593 11.5937 9.98984 11.5937 8.00234C11.5937 6.01484 9.99096 4.41172 8.00391 4.41172ZM8.00391 10.3367C6.71982 10.3367 5.67005 9.28984 5.67005 8.00234C5.67005 6.71484 6.71669 5.66797 8.00391 5.66797C9.29112 5.66797 10.3378 6.71484 10.3378 8.00234C10.3378 9.28984 9.28799 10.3367 8.00391 10.3367ZM12.5779 4.26484C12.5779 4.73047 12.203 5.10234 11.7406 5.10234C11.2751 5.10234 10.9033 4.72734 10.9033 4.26484C10.9033 3.80234 11.2782 3.42734 11.7406 3.42734C12.203 3.42734 12.5779 3.80234 12.5779 4.26484ZM14.9555 5.11484C14.9024 3.99297 14.6462 2.99922 13.8245 2.18047C13.0059 1.36172 12.0124 1.10547 10.8908 1.04922C9.73477 0.983594 6.26992 0.983594 5.11393 1.04922C3.99543 1.10234 3.0019 1.35859 2.18021 2.17734C1.35851 2.99609 1.10545 3.98984 1.04921 5.11172C0.983597 6.26797 0.983597 9.73359 1.04921 10.8898C1.10232 12.0117 1.35851 13.0055 2.18021 13.8242C3.0019 14.643 3.9923 14.8992 5.11393 14.9555C6.26992 15.0211 9.73477 15.0211 10.8908 14.9555C12.0124 14.9023 13.0059 14.6461 13.8245 13.8242C14.643 13.0055 14.8992 12.0117 14.9555 10.8898C15.0211 9.73359 15.0211 6.27109 14.9555 5.11484ZM13.4621 12.1305C13.2184 12.743 12.7466 13.2148 12.1311 13.4617C11.2094 13.8273 9.02243 13.743 8.00391 13.743C6.98538 13.743 4.79525 13.8242 3.8767 13.4617C3.26434 13.218 2.79257 12.7461 2.54575 12.1305C2.18021 11.2086 2.26456 9.02109 2.26456 8.00234C2.26456 6.98359 2.18333 4.79297 2.54575 3.87422C2.78944 3.26172 3.26121 2.78984 3.8767 2.54297C4.79837 2.17734 6.98538 2.26172 8.00391 2.26172C9.02243 2.26172 11.2126 2.18047 12.1311 2.54297C12.7435 2.78672 13.2152 3.25859 13.4621 3.87422C13.8276 4.79609 13.7433 6.98359 13.7433 8.00234C13.7433 9.02109 13.8276 11.2117 13.4621 12.1305Z" fill="white"/>
</svg>
