<svg width="24" height="24" viewBox="0 0 24 24" fill="none" xmlns="http://www.w3.org/2000/svg">
<path d="M11.838 10.7158C11.4301 10.6439 11.0411 10.9162 10.9691 11.3242C10.8972 11.7321 11.1696 12.1211 11.5775 12.193L17.4863 13.2349C17.8943 13.3068 18.2833 13.0344 18.3552 12.6265C18.4271 12.2186 18.1547 11.8296 17.7468 11.7577L11.838 10.7158Z" fill="#353566"/>
<path d="M11.6635 7.3849C11.7354 6.97697 12.1244 6.7046 12.5323 6.77653L16.1958 7.42249C16.6037 7.49442 16.8761 7.88341 16.8041 8.29133C16.7322 8.69925 16.3432 8.97163 15.9353 8.8997L12.2718 8.25374C11.8639 8.18181 11.5915 7.79282 11.6635 7.3849Z" fill="#353566"/>
<path d="M11.4204 14.7039C11.0124 14.632 10.6235 14.9043 10.5515 15.3123C10.4796 15.7202 10.752 16.1092 11.1599 16.1811L17.0687 17.223C17.4767 17.2949 17.8657 17.0225 17.9376 16.6146C18.0095 16.2067 17.7371 15.8177 17.3292 15.7458L11.4204 14.7039Z" fill="#353566"/>
<path fill-rule="evenodd" clip-rule="evenodd" d="M14.9231 1.63831L18.2372 2.22268C19.1751 2.38806 19.9241 2.52012 20.5204 2.67621C21.1319 2.83631 21.6468 3.03675 22.0929 3.37291C22.8096 3.91304 23.337 4.66623 23.5994 5.52453C23.7628 6.0587 23.775 6.6111 23.7163 7.24048C23.6591 7.85412 23.527 8.60311 23.3616 9.54107L22.0045 17.2376C21.8391 18.1756 21.707 18.9246 21.5509 19.5208C21.3909 20.1323 21.1904 20.6472 20.8543 21.0933C20.3141 21.8101 19.5609 22.3374 18.7026 22.5999C18.1685 22.7632 17.6161 22.7754 16.9867 22.7167C16.3731 22.6595 15.6241 22.5274 14.6862 22.362L12.0005 21.8884L9.31396 22.3622C8.37615 22.5275 7.62694 22.6596 7.01337 22.7169C6.38399 22.7756 5.83159 22.7633 5.29742 22.6C4.43912 22.3376 3.68593 21.8102 3.1458 21.0934C2.80963 20.6473 2.60919 20.1324 2.4491 19.5209C2.29301 18.9247 2.16095 18.1757 1.99557 17.2378L0.638463 9.54123C0.473067 8.60326 0.340996 7.85427 0.283756 7.24063C0.225047 6.61125 0.237293 6.05885 0.400606 5.52468C0.663012 4.66639 1.1904 3.9132 1.90719 3.37306C2.35329 3.0369 2.86819 2.83646 3.47969 2.67637C4.07589 2.52028 4.82487 2.38822 5.76281 2.22284L6.07495 2.1678C6.48288 2.09587 6.87187 2.36825 6.9438 2.77617C7.01572 3.18409 6.74335 3.57309 6.33543 3.64501L6.05546 3.69438C5.07807 3.86672 4.38955 3.98871 3.85959 4.12746C3.33812 4.26398 3.03488 4.40148 2.80991 4.57101C2.34611 4.92051 2.00486 5.40787 1.83506 5.96324C1.7527 6.23263 1.72721 6.56461 1.77727 7.10132C1.82815 7.64678 1.949 8.3355 2.12134 9.31289L3.46711 16.9452C3.63945 17.9225 3.76145 18.6111 3.9002 19.141C4.03672 19.6625 4.17422 19.9657 4.34375 20.1907C4.69325 20.6545 5.18061 20.9958 5.73597 21.1656C6.00536 21.2479 6.33734 21.2734 6.87405 21.2233C7.24143 21.1891 7.67379 21.1231 8.21557 21.031C7.96425 20.921 7.73221 20.7901 7.51628 20.6274C6.7995 20.0873 6.27211 19.3341 6.0097 18.4758C5.84639 17.9416 5.83414 17.3892 5.89285 16.7598C5.95009 16.1462 6.08216 15.3972 6.24756 14.4592L7.60466 6.76272C7.77004 5.82475 7.90211 5.07575 8.0582 4.47954C8.21829 3.86803 8.41873 3.35313 8.75489 2.90703C9.29503 2.19025 10.0482 1.66286 10.9065 1.40045C11.4407 1.23714 11.9931 1.22489 12.6225 1.2836C13.2361 1.34084 13.9851 1.47292 14.9231 1.63831ZM14.9144 20.8791L11.6646 20.3061C10.6872 20.1337 9.99865 20.0117 9.46868 19.873C8.94722 19.7365 8.64398 19.599 8.419 19.4294C7.9552 19.0799 7.61395 18.5926 7.44416 18.0372C7.3618 17.7678 7.3363 17.4359 7.38637 16.8991C7.43725 16.3537 7.55809 15.665 7.73043 14.6876L9.07621 7.05531C9.24855 6.07792 9.37055 5.3894 9.50929 4.85944C9.64581 4.33797 9.78331 4.03473 9.95284 3.80976C10.3023 3.34595 10.7897 3.0047 11.3451 2.83491C11.6145 2.75255 11.9464 2.72705 12.4831 2.77712C13.0286 2.828 13.7173 2.94885 14.6947 3.12119L17.9446 3.69423C18.922 3.86657 19.6105 3.98856 20.1405 4.12731C20.6619 4.26383 20.9652 4.40133 21.1901 4.57086C21.6539 4.92036 21.9952 5.40772 22.165 5.96309C22.2473 6.23248 22.2728 6.56445 22.2228 7.10117C22.1719 7.64663 22.051 8.33535 21.8787 9.31274L20.5329 16.945C20.3606 17.9224 20.2386 18.6109 20.0999 19.1409C19.9633 19.6623 19.8258 19.9656 19.6563 20.1906C19.3068 20.6544 18.8194 20.9956 18.2641 21.1654C17.9947 21.2478 17.6627 21.2733 17.126 21.2232C16.5805 21.1723 15.8918 21.0515 14.9144 20.8791Z" fill="#353566"/>
</svg>
