<svg width="24" height="24" viewBox="0 0 24 24" fill="none" xmlns="http://www.w3.org/2000/svg">
<path d="M11.8381 10.7158C11.4301 10.6439 11.0411 10.9162 10.9692 11.3242C10.8973 11.7321 11.1697 12.1211 11.5776 12.193L17.4864 13.2349C17.8944 13.3068 18.2834 13.0344 18.3553 12.6265C18.4272 12.2186 18.1548 11.8296 17.7469 11.7577L11.8381 10.7158Z" fill="white"/>
<path d="M11.6636 7.3849C11.7355 6.97697 12.1245 6.7046 12.5324 6.77653L16.1959 7.42249C16.6038 7.49442 16.8762 7.88341 16.8042 8.29133C16.7323 8.69925 16.3433 8.97163 15.9354 8.8997L12.2719 8.25374C11.864 8.18181 11.5916 7.79282 11.6636 7.3849Z" fill="white"/>
<path d="M11.4205 14.7039C11.0125 14.632 10.6235 14.9043 10.5516 15.3123C10.4797 15.7202 10.7521 16.1092 11.16 16.1811L17.0688 17.223C17.4768 17.2949 17.8658 17.0225 17.9377 16.6146C18.0096 16.2067 17.7372 15.8177 17.3293 15.7458L11.4205 14.7039Z" fill="white"/>
<path fill-rule="evenodd" clip-rule="evenodd" d="M14.9232 1.63831L18.2373 2.22268C19.1752 2.38806 19.9242 2.52012 20.5205 2.67621C21.132 2.83631 21.6469 3.03675 22.093 3.37291C22.8097 3.91304 23.3371 4.66623 23.5995 5.52453C23.7628 6.0587 23.7751 6.6111 23.7164 7.24048C23.6591 7.85412 23.5271 8.60311 23.3617 9.54107L22.0046 17.2376C21.8392 18.1756 21.7071 18.9246 21.551 19.5208C21.3909 20.1323 21.1905 20.6472 20.8543 21.0933C20.3142 21.8101 19.561 22.3374 18.7027 22.5999C18.1686 22.7632 17.6162 22.7754 16.9868 22.7167C16.3731 22.6595 15.6242 22.5274 14.6862 22.362L12.0005 21.8884L9.31405 22.3622C8.37624 22.5275 7.62703 22.6596 7.01346 22.7169C6.38408 22.7756 5.83168 22.7633 5.29751 22.6C4.43921 22.3376 3.68602 21.8102 3.14589 21.0934C2.80973 20.6473 2.60929 20.1324 2.44919 19.5209C2.2931 18.9247 2.16104 18.1757 1.99566 17.2378L0.638554 9.54123C0.473159 8.60326 0.341087 7.85427 0.283847 7.24063C0.225138 6.61125 0.237384 6.05885 0.400697 5.52468C0.663104 4.66639 1.19049 3.9132 1.90728 3.37306C2.35338 3.0369 2.86828 2.83646 3.47978 2.67637C4.07598 2.52028 4.82496 2.38822 5.76291 2.22284L6.07505 2.1678C6.48297 2.09587 6.87196 2.36825 6.94389 2.77617C7.01582 3.18409 6.74344 3.57309 6.33552 3.64501L6.05556 3.69438C5.07817 3.86672 4.38965 3.98871 3.85968 4.12746C3.33821 4.26398 3.03497 4.40148 2.81 4.57101C2.3462 4.92051 2.00495 5.40787 1.83515 5.96324C1.75279 6.23263 1.7273 6.56461 1.77736 7.10132C1.82824 7.64678 1.94909 8.3355 2.12143 9.31289L3.46721 16.9452C3.63955 17.9225 3.76154 18.6111 3.90029 19.141C4.03681 19.6625 4.17431 19.9657 4.34384 20.1907C4.69334 20.6545 5.1807 20.9958 5.73606 21.1656C6.00545 21.2479 6.33743 21.2734 6.87414 21.2233C7.24152 21.1891 7.67389 21.1231 8.21566 21.031C7.96435 20.921 7.7323 20.7901 7.51637 20.6274C6.79959 20.0873 6.2722 19.3341 6.00979 18.4758C5.84648 17.9416 5.83423 17.3892 5.89294 16.7598C5.95018 16.1462 6.08226 15.3972 6.24765 14.4592L7.60475 6.76272C7.77013 5.82475 7.9022 5.07575 8.05829 4.47954C8.21838 3.86803 8.41882 3.35313 8.75498 2.90703C9.29512 2.19025 10.0483 1.66286 10.9066 1.40045C11.4408 1.23714 11.9932 1.22489 12.6226 1.2836C13.2362 1.34084 13.9852 1.47292 14.9232 1.63831ZM14.9145 20.8791L11.6647 20.3061C10.6873 20.1337 9.99874 20.0117 9.46878 19.873C8.94731 19.7365 8.64407 19.599 8.4191 19.4294C7.95529 19.0799 7.61404 18.5926 7.44425 18.0372C7.36189 17.7678 7.33639 17.4359 7.38646 16.8991C7.43734 16.3537 7.55819 15.665 7.73053 14.6876L9.0763 7.05531C9.24864 6.07792 9.37064 5.3894 9.50938 4.85944C9.6459 4.33797 9.7834 4.03473 9.95293 3.80976C10.3024 3.34595 10.7898 3.0047 11.3452 2.83491C11.6145 2.75255 11.9465 2.72705 12.4832 2.77712C13.0287 2.828 13.7174 2.94885 14.6948 3.12119L17.9447 3.69423C18.9221 3.86657 19.6106 3.98856 20.1406 4.12731C20.662 4.26383 20.9653 4.40133 21.1902 4.57086C21.654 4.92036 21.9953 5.40772 22.1651 5.96309C22.2474 6.23248 22.2729 6.56445 22.2229 7.10117C22.172 7.64663 22.0511 8.33535 21.8788 9.31274L20.533 16.945C20.3607 17.9224 20.2387 18.6109 20.0999 19.1409C19.9634 19.6623 19.8259 19.9656 19.6564 20.1906C19.3069 20.6544 18.8195 20.9956 18.2642 21.1654C17.9948 21.2478 17.6628 21.2733 17.1261 21.2232C16.5806 21.1723 15.8919 21.0515 14.9145 20.8791Z" fill="white"/>
</svg>
