<svg width="40" height="40" viewBox="0 0 40 40" fill="none" xmlns="http://www.w3.org/2000/svg">
<path fill-rule="evenodd" clip-rule="evenodd" d="M18.3289 2.09C18.494 2.10343 18.7949 2.14813 19.0885 2.3506C19.5771 2.68757 19.8471 3.24977 19.8047 3.84181C19.7775 4.22184 19.6019 4.4971 19.5139 4.62233C19.4119 4.76726 19.2933 4.89404 19.1946 4.99294C19.0049 5.18311 18.741 5.41468 18.4514 5.66882L18.4199 5.69642C16.0675 7.76077 14.5855 10.7856 14.5855 14.1581C14.5855 20.3731 19.6238 25.4114 25.8388 25.4114C29.213 25.4114 32.2392 23.9279 34.3036 21.5733L34.3311 21.542C34.5852 21.2522 34.8167 20.9881 35.0068 20.7983C35.1057 20.6996 35.2324 20.5809 35.3773 20.4789C35.5025 20.3908 35.7777 20.2151 36.1577 20.1877C36.7497 20.1451 37.312 20.4148 37.6492 20.9033C37.8518 21.1968 37.8966 21.4977 37.9101 21.6629C37.9246 21.8404 37.9131 22.0106 37.8996 22.1429C37.8741 22.3935 37.8178 22.7118 37.7584 23.0481L37.751 23.0903C36.2628 31.5158 28.9074 37.9159 20.0545 37.9159C10.1294 37.9159 2.0835 29.87 2.0835 19.9449C2.0835 11.0947 8.47972 3.74097 16.9015 2.24977L16.9437 2.2423C17.2799 2.18273 17.5983 2.12633 17.8488 2.10069C17.9811 2.08715 18.1513 2.07556 18.3289 2.09ZM15.4205 5.1795C9.14006 7.14836 4.5835 13.0156 4.5835 19.9449C4.5835 28.4893 11.5101 35.4159 20.0545 35.4159C26.9862 35.4159 32.855 30.8563 34.8219 24.5725C32.4128 26.652 29.2723 27.9114 25.8388 27.9114C18.2431 27.9114 12.0855 21.7538 12.0855 14.1581C12.0855 10.7267 13.3433 7.58799 15.4205 5.1795Z" fill="#353566"/>
</svg>
