<svg width="184" height="40" viewBox="0 0 184 40" fill="none" xmlns="http://www.w3.org/2000/svg">
<g clip-path="url(#clip0_1_1110)">
<path d="M127.844 11.0198C127.844 12.1219 126.953 13.0137 125.854 13.0137C124.755 13.0137 123.864 12.1205 123.864 11.0198C123.864 9.91898 124.755 9.02578 125.854 9.02578C126.953 9.02578 127.844 9.91898 127.844 11.0198ZM62.1229 9.02578H43.5621C43.3536 9.02578 43.1838 9.19585 43.1838 9.40609V13.8493C43.1838 14.0596 43.3536 14.2283 43.5621 14.2283H55.2333L42.9325 29.6378C42.879 29.7047 42.8496 29.7891 42.8496 29.8748V33.4168C42.8496 33.6271 43.0194 33.7971 43.2279 33.7971H61.9264C62.1363 33.7971 62.306 33.6271 62.306 33.4168V29.0084C62.306 28.7981 62.1363 28.6294 61.9264 28.6294H50.4945L62.4183 13.6913C62.4718 13.6244 62.5012 13.54 62.5012 13.4543V9.40609C62.5012 9.19585 62.3314 9.02578 62.1229 9.02578ZM78.3698 17.461C79.6852 18.9648 80.3442 21.1369 80.3442 23.9813V33.4168C80.3442 33.6271 80.1744 33.7971 79.9645 33.7971H75.6682C75.4584 33.7971 75.2899 33.6271 75.2899 33.4168V31.4027C74.7124 32.2812 74.0548 32.9066 73.3155 33.2749C72.5763 33.6445 71.8852 33.8694 71.2382 33.9511C70.5926 34.0315 70.1194 34.0716 69.8186 34.0716C68.9644 34.0716 68.1557 33.9565 67.3951 33.7248C66.6344 33.4931 65.9527 33.1463 65.3525 32.6843C64.7523 32.2223 64.2791 31.6438 63.9329 30.9501C63.5867 30.2564 63.4129 29.4476 63.4129 28.5223C63.4129 27.2046 63.6842 26.1587 64.2256 25.3833C64.7683 24.6093 65.5076 24.0308 66.442 23.6491C67.3763 23.2675 68.4444 23.0198 69.6448 22.9032C70.8439 22.7881 72.0911 22.7305 73.385 22.7305H75.1161C75.1161 22.1533 75.0065 21.6498 74.7873 21.2226C74.5681 20.7954 74.2392 20.454 73.8008 20.1995C73.3623 19.9451 72.8196 19.8179 72.1726 19.8179C71.7114 19.8179 71.2783 19.8808 70.8733 20.008C70.4696 20.1353 70.1341 20.3093 69.8707 20.529C69.6047 20.7486 69.4256 21.0941 69.3334 21.4168H64.2844C64.0478 21.4168 63.8607 21.1985 63.9075 20.9655C64.0893 20.0536 64.4034 19.2179 64.8499 18.5524C65.3699 17.777 66.0142 17.1476 66.7882 16.6615C67.5608 16.1754 68.4324 15.8112 69.4029 15.5688C70.372 15.3251 71.3639 15.2046 72.3798 15.2046C75.0573 15.2046 77.0531 15.9558 78.3685 17.4597L78.3698 17.461ZM75.1857 26.235H71.7943C71.424 26.235 71.0604 26.2578 70.7035 26.3047C70.3466 26.3515 70.0285 26.4386 69.7504 26.5644C69.4737 26.6917 69.2545 26.8711 69.0941 27.1028C68.9323 27.3345 68.8508 27.6344 68.8508 28.004C68.8508 28.3964 68.9537 28.7272 69.1622 28.9923C69.3694 29.2575 69.6515 29.461 70.0111 29.5989C70.3693 29.7382 70.765 29.8065 71.2048 29.8065C71.8986 29.8065 72.5442 29.6498 73.1444 29.3378C73.7446 29.0258 74.2339 28.6214 74.6162 28.1232C74.9958 27.6264 75.187 27.0894 75.187 26.5109V26.2337L75.1857 26.235ZM100.719 19.8192C101.307 21.2293 101.601 22.8256 101.601 24.6053C101.601 26.385 101.291 27.992 100.667 29.4262C100.044 30.8604 99.1215 31.9933 97.8971 32.8249C96.6753 33.6579 95.1634 34.073 93.3615 34.073C92.6009 34.073 91.8844 33.9806 91.216 33.7958C90.5463 33.611 89.9474 33.3686 89.4154 33.0673C88.8847 32.7673 88.4569 32.4433 88.1348 32.0964V39.609C88.1348 39.8192 87.965 39.9879 87.7551 39.9879H83.007C82.7971 39.9879 82.6287 39.8179 82.6287 39.609V15.8982C82.6287 15.688 82.7985 15.5193 83.007 15.5193H87.3862C87.576 15.5193 87.7378 15.6612 87.7618 15.85L87.9958 17.6699C88.8032 16.7687 89.6614 16.1259 90.5757 15.7442C91.4874 15.3626 92.5073 15.1724 93.6382 15.1724C95.4161 15.1724 96.8945 15.5942 98.0695 16.4379C99.2472 17.2816 100.132 18.4091 100.719 19.8192ZM96.2007 24.7446C96.2007 24.004 96.0738 23.2822 95.8211 22.5765C95.5658 21.8708 95.1501 21.299 94.5726 20.8597C93.9951 20.4205 93.2104 20.2009 92.2186 20.2009C91.3189 20.2009 90.5623 20.4151 89.9514 20.8423C89.3392 21.2708 88.878 21.8199 88.5665 22.4895C88.2551 23.1604 88.0987 23.8768 88.0987 24.6401C88.0987 25.4034 88.2484 26.1199 88.5492 26.7894C88.8499 27.4603 89.3111 28.0094 89.9327 28.4366C90.557 28.8651 91.3523 29.078 92.3215 29.078C93.3374 29.078 94.1234 28.8584 94.6768 28.4192C95.2303 27.9799 95.6233 27.4255 95.8545 26.7546C96.0844 26.085 96.2007 25.4141 96.2007 24.7432V24.7446ZM121.318 19.8192C121.906 21.2293 122.201 22.8256 122.201 24.6053C122.201 26.385 121.89 27.992 121.266 29.4262C120.643 30.8604 119.721 31.9933 118.496 32.8249C117.275 33.6579 115.763 34.073 113.961 34.073C113.2 34.073 112.484 33.9806 111.815 33.7958C111.146 33.611 110.547 33.3686 110.015 33.0673C109.484 32.7673 109.056 32.4433 108.734 32.0964V39.609C108.734 39.8192 108.564 39.9879 108.354 39.9879H103.606C103.396 39.9879 103.228 39.8179 103.228 39.609V15.8982C103.228 15.688 103.398 15.5193 103.606 15.5193H107.986C108.175 15.5193 108.337 15.6612 108.361 15.85L108.595 17.6699C109.403 16.7687 110.261 16.1259 111.175 15.7442C112.087 15.3626 113.107 15.1724 114.238 15.1724C116.015 15.1724 117.494 15.5942 118.669 16.4379C119.847 17.2816 120.731 18.4091 121.318 19.8192ZM116.801 24.7446C116.801 24.004 116.674 23.2822 116.422 22.5765C116.166 21.8708 115.751 21.299 115.173 20.8597C114.596 20.4205 113.811 20.2009 112.819 20.2009C111.92 20.2009 111.163 20.4151 110.552 20.8423C109.94 21.2708 109.479 21.8199 109.167 22.4895C108.856 23.1604 108.699 23.8768 108.699 24.6401C108.699 25.4034 108.849 26.1199 109.15 26.7894C109.451 27.4603 109.912 28.0094 110.533 28.4366C111.158 28.8651 111.953 29.078 112.922 29.078C113.938 29.078 114.724 28.8584 115.278 28.4192C115.831 27.9799 116.224 27.4255 116.455 26.7546C116.685 26.085 116.801 25.4141 116.801 24.7432V24.7446ZM126.947 15.5179H124.762C124.552 15.5179 124.384 15.688 124.384 15.8969V33.4155C124.384 33.6257 124.553 33.7958 124.762 33.7958H126.947C127.157 33.7958 127.327 33.6257 127.327 33.4155V15.8969C127.327 15.6866 127.157 15.5179 126.947 15.5179ZM145.681 28.5584H143.384C143.221 28.5584 143.083 28.6709 143.034 28.8262C142.734 29.7476 142.19 30.3984 141.398 30.7787C140.534 31.1952 139.614 31.4027 138.645 31.4027C137.33 31.4027 136.257 31.0961 135.426 30.4828C134.595 29.8708 133.983 29.0552 133.591 28.0375C133.198 27.0198 133.003 25.9109 133.003 24.7084C133.003 23.5527 133.193 22.46 133.574 21.4302C133.955 20.4017 134.56 19.5634 135.392 18.9153C136.223 18.2685 137.33 17.9444 138.715 17.9444C139.729 17.9444 140.613 18.1587 141.363 18.5859C142.05 18.9782 142.569 19.6183 142.918 20.5075C142.974 20.6508 143.109 20.7526 143.262 20.7526H145.527C145.776 20.7526 145.967 20.5075 145.903 20.2665C145.637 19.2782 145.226 18.4399 144.667 17.7529C144.023 16.9548 143.208 16.3482 142.228 15.9317C141.247 15.5152 140.133 15.3077 138.887 15.3077C136.879 15.3077 135.222 15.7295 133.919 16.5732C132.613 17.4168 131.645 18.5511 131.01 19.9719C130.375 21.394 130.057 22.9729 130.057 24.7071C130.057 26.4881 130.363 28.083 130.976 29.4931C131.587 30.9032 132.522 32.0067 133.781 32.8048C135.037 33.6029 136.624 34.002 138.541 34.002C139.741 34.002 140.878 33.8119 141.951 33.4302C143.026 33.0485 143.936 32.454 144.687 31.6438C145.34 30.9394 145.797 30.0676 146.056 29.0298C146.115 28.7928 145.924 28.5584 145.681 28.5584ZM164.387 19.8366C165.022 21.236 165.34 22.8497 165.34 24.6749C165.34 26.4787 165.017 28.0857 164.37 29.4958C163.723 30.9059 162.76 32.0094 161.478 32.8075C160.199 33.6056 158.588 34.0047 156.65 34.0047C154.733 34.0047 153.129 33.6056 151.836 32.8075C150.544 32.0094 149.58 30.9059 148.946 29.4958C148.313 28.0857 147.993 26.4787 147.993 24.6749C147.993 22.8483 148.317 21.236 148.964 19.8366C149.609 18.4386 150.579 17.3338 151.872 16.5236C153.165 15.7148 154.78 15.3103 156.72 15.3103C158.636 15.3103 160.234 15.7148 161.514 16.5236C162.795 17.3338 163.754 18.4372 164.387 19.8366ZM162.398 24.6749C162.398 23.4255 162.195 22.2939 161.793 21.2749C161.387 20.2585 160.763 19.4483 159.922 18.847C159.08 18.2457 157.989 17.9458 156.651 17.9458C155.336 17.9458 154.256 18.2471 153.414 18.847C152.572 19.4483 151.947 20.2585 151.545 21.2749C151.141 22.2926 150.939 23.4255 150.939 24.6749C150.939 25.9243 151.141 27.0559 151.545 28.0737C151.949 29.0914 152.573 29.9002 153.414 30.5015C154.256 31.1028 155.336 31.4027 156.651 31.4027C157.989 31.4027 159.08 31.1028 159.922 30.5015C160.765 29.9002 161.389 29.0914 161.793 28.0737C162.195 27.0559 162.398 25.923 162.398 24.6749ZM183.36 19.4202C182.932 18.16 182.217 17.1597 181.214 16.4192C180.209 15.6799 178.819 15.309 177.042 15.309C176.303 15.309 175.546 15.4188 174.774 15.6384C174.001 15.8581 173.291 16.1875 172.646 16.6267C171.999 17.066 171.468 17.6204 171.054 18.2913L170.932 15.8768C170.921 15.6746 170.755 15.5166 170.554 15.5166H168.454C168.244 15.5166 168.075 15.6866 168.075 15.8955V33.457C168.075 33.6672 168.245 33.836 168.454 33.836H170.639C170.849 33.836 171.019 33.6659 171.019 33.457V25.4356C171.019 24.0254 171.231 22.7533 171.659 21.6204C172.084 20.4874 172.719 19.5862 173.563 18.914C174.406 18.2444 175.427 17.9083 176.628 17.9083C177.597 17.9083 178.37 18.0877 178.946 18.4453C179.523 18.8042 179.967 19.2956 180.28 19.9197C180.59 20.5437 180.798 21.2494 180.901 22.0355C181.006 22.8216 181.058 23.6438 181.058 24.4982V33.4556C181.058 33.6659 181.228 33.8346 181.436 33.8346H183.62C183.83 33.8346 184 33.6645 184 33.4556V23.7C184 22.1051 183.786 20.6776 183.36 19.4175V19.4202Z" fill="#353566"/>
<path d="M20.0836 6.29225C20.0836 3.13189 16.1829 1.85168 14.2874 4.22731L0.731413 21.2209C-1.01572 23.4118 0.579023 26.5775 3.26857 26.5775H10.1756V36.8647C10.1756 40.0238 14.0749 41.3053 15.9717 38.931L29.5251 21.9521C31.2735 19.7613 29.6788 16.5956 26.9879 16.5956H20.0822V6.29359L20.0836 6.29225Z" fill="url(#paint0_linear_1_1110)"/>
<path d="M35.4131 0.105887C36.0841 -0.281124 36.8354 0.470132 36.4477 1.14238L34.0576 5.3004C33.9226 5.53475 33.9226 5.824 34.0576 6.05835L36.4477 10.2164C36.834 10.8886 36.0841 11.6412 35.4131 11.2529L31.2624 8.85848C31.0285 8.72323 30.7398 8.72323 30.5058 8.85848L26.3552 11.2529C25.6842 11.6399 24.9329 10.8886 25.3206 10.2164L27.7107 6.05835C27.8457 5.824 27.8457 5.53475 27.7107 5.3004L25.3206 1.14238C24.9343 0.470132 25.6842 -0.282463 26.3552 0.105887L30.5058 2.50026C30.7398 2.63551 31.0285 2.63551 31.2624 2.50026L35.4131 0.105887Z" fill="#F58854"/>
</g>
<defs>
<linearGradient id="paint0_linear_1_1110" x1="25.7277" y1="11" x2="5.25563" y2="31.5278" gradientUnits="userSpaceOnUse">
<stop stop-color="#7B7BFF"/>
<stop offset="1" stop-color="#5555DB"/>
</linearGradient>
<clipPath id="clip0_1_1110">
<rect width="184" height="40" fill="white"/>
</clipPath>
</defs>
</svg>
