<svg width="40" height="40" viewBox="0 0 40 40" fill="none" xmlns="http://www.w3.org/2000/svg">
<path fill-rule="evenodd" clip-rule="evenodd" d="M15.8332 0.416656C11.0007 0.416656 7.08319 4.33416 7.08319 9.16666C7.08319 13.9991 11.0007 17.9167 15.8332 17.9167H20.4165V25.8333C20.4165 26.5237 20.9762 27.0833 21.6665 27.0833C22.3569 27.0833 22.9165 26.5237 22.9165 25.8333V2.91666H27.0832V25.8333C27.0832 26.5237 27.6428 27.0833 28.3332 27.0833C29.0235 27.0833 29.5832 26.5237 29.5832 25.8333V2.91666H33.3332C34.0235 2.91666 34.5832 2.35701 34.5832 1.66666C34.5832 0.9763 34.0235 0.416656 33.3332 0.416656H15.8332ZM15.8332 2.91666H20.4165V15.4167H15.8332C12.3814 15.4167 9.58319 12.6184 9.58319 9.16666C9.58319 5.71488 12.3814 2.91666 15.8332 2.91666Z" fill="#353566"/>
<path d="M34.5832 32.5C34.5832 33.1903 34.0235 33.75 33.3332 33.75H9.9933L14.1563 37.3926C14.6758 37.8472 14.7285 38.6369 14.2739 39.1565C13.8193 39.676 13.0296 39.7287 12.51 39.2741L5.84337 33.4407C5.5721 33.2034 5.4165 32.8605 5.4165 32.5C5.4165 32.1396 5.5721 31.7966 5.84337 31.5593L12.51 25.7259C13.0296 25.2713 13.8193 25.324 14.2739 25.8435C14.7285 26.3631 14.6758 27.1528 14.1563 27.6074L9.99334 31.25H33.3332C34.0235 31.25 34.5832 31.8096 34.5832 32.5Z" fill="#353566"/>
</svg>
