<svg width="80" height="80" viewBox="0 0 80 80" fill="none" xmlns="http://www.w3.org/2000/svg">
<path fill-rule="evenodd" clip-rule="evenodd" d="M18.4481 29.2285C20.5853 24.5173 26.8425 23.3106 30.5737 27.041L52.9533 49.4238L53.3016 49.7917C56.7125 53.6786 55.2342 59.8766 50.3003 61.7415L14.3368 75.3255C8.29752 77.6067 2.38843 71.7 4.66879 65.6608L18.256 29.694L18.4481 29.2285ZM9.34652 67.4284C8.58767 69.4409 10.5566 71.411 12.5692 70.651L23.1226 66.6602L13.3309 56.8685L9.34652 67.4284ZM15.271 51.7383L28.256 64.7233L37.6408 61.1784L18.8159 42.3535L15.271 51.7383ZM27.0386 30.5762C25.835 29.3733 23.8434 29.7128 23.0705 31.1589L22.9305 31.4616L20.7528 37.2201L42.771 59.2383L48.536 57.0638C50.125 56.4614 50.6364 54.5087 49.6395 53.2096L49.4181 52.959L27.0386 30.5762Z" fill="url(#paint0_linear_122_51975)"/>
<path d="M67.6408 47.6367C68.9426 46.3371 71.0532 46.336 72.3543 47.6367L72.5855 47.8906C73.6518 49.1996 73.5736 51.1336 72.3543 52.3535C71.1343 53.5731 69.2005 53.648 67.8914 52.5814L67.6408 52.3535C66.339 51.0518 66.339 48.9385 67.6408 47.6367Z" fill="url(#paint1_linear_122_51975)"/>
<path d="M69.9943 32.5C71.374 32.5012 72.4943 33.6201 72.4943 35C72.4937 36.3794 71.3736 37.4988 69.9943 37.5C67.7861 37.5 66.0564 37.8637 64.5516 38.5319C63.0361 39.2052 61.6171 40.2456 60.0985 41.7643C59.1228 42.74 57.5398 42.7388 56.5633 41.7643C55.5875 40.7881 55.5874 39.2054 56.5633 38.2292C58.3772 36.4151 60.2917 34.9564 62.5236 33.9648C64.7663 32.9689 67.204 32.5 69.9943 32.5Z" fill="url(#paint2_linear_122_51975)"/>
<path d="M59.9976 4.16667C61.377 4.16825 62.4976 5.28701 62.4976 6.66667C62.4942 20.2845 55.9073 31.0287 48.5002 35.1856L47.7808 35.5664L47.5464 35.6706C46.3619 36.1199 45.0071 35.6039 44.4279 34.4466C43.8111 33.2119 44.3099 31.7112 45.5444 31.0938L46.0718 30.8106C51.5679 27.7079 57.4944 18.881 57.4976 6.66667C57.4979 5.28616 58.6171 4.16666 59.9976 4.16667Z" fill="url(#paint3_linear_122_51975)"/>
<path d="M44.9976 7.50001C46.3772 7.50125 47.4976 8.62006 47.4976 10C47.4974 12.7902 47.0289 15.228 46.0327 17.4707C45.0412 19.7024 43.5823 21.6172 41.7684 23.431C40.7927 24.4063 39.2096 24.4051 38.2332 23.431C37.2571 22.4546 37.257 20.8721 38.2332 19.8958C39.7518 18.3774 40.7923 16.958 41.4657 15.4427C42.1341 13.938 42.4974 12.2081 42.4976 10C42.4976 8.61929 43.6169 7.50001 44.9976 7.50001Z" fill="url(#paint4_linear_122_51975)"/>
<path d="M67.6408 17.64C68.9426 16.3396 71.053 16.3387 72.3543 17.64L72.5855 17.8939C73.651 19.2026 73.5727 21.1337 72.3543 22.3535C71.1344 23.5735 69.2007 23.6514 67.8914 22.5846L67.6408 22.3535C66.339 21.0518 66.339 18.9417 67.6408 17.64Z" fill="url(#paint5_linear_122_51975)"/>
<path d="M27.6408 7.63998C28.9426 6.33938 31.053 6.33861 32.3543 7.63998L32.5855 7.89389C33.6509 9.20268 33.5729 11.1338 32.3543 12.3535C31.1344 13.5735 29.2007 13.6514 27.8914 12.5846L27.6408 12.3535C26.339 11.0518 26.339 8.94173 27.6408 7.63998Z" fill="url(#paint6_linear_122_51975)"/>
<defs>
<linearGradient id="paint0_linear_122_51975" x1="4.16821" y1="39.9966" x2="73.3309" y2="39.9966" gradientUnits="userSpaceOnUse">
<stop stop-color="#F8AB5E"/>
<stop offset="0.35" stop-color="#F36961"/>
<stop offset="0.65" stop-color="#A176C8"/>
<stop offset="1" stop-color="#759BEB"/>
</linearGradient>
<linearGradient id="paint1_linear_122_51975" x1="4.16821" y1="39.9966" x2="73.3309" y2="39.9966" gradientUnits="userSpaceOnUse">
<stop stop-color="#F8AB5E"/>
<stop offset="0.35" stop-color="#F36961"/>
<stop offset="0.65" stop-color="#A176C8"/>
<stop offset="1" stop-color="#759BEB"/>
</linearGradient>
<linearGradient id="paint2_linear_122_51975" x1="4.16821" y1="39.9966" x2="73.3309" y2="39.9966" gradientUnits="userSpaceOnUse">
<stop stop-color="#F8AB5E"/>
<stop offset="0.35" stop-color="#F36961"/>
<stop offset="0.65" stop-color="#A176C8"/>
<stop offset="1" stop-color="#759BEB"/>
</linearGradient>
<linearGradient id="paint3_linear_122_51975" x1="4.16821" y1="39.9966" x2="73.3309" y2="39.9966" gradientUnits="userSpaceOnUse">
<stop stop-color="#F8AB5E"/>
<stop offset="0.35" stop-color="#F36961"/>
<stop offset="0.65" stop-color="#A176C8"/>
<stop offset="1" stop-color="#759BEB"/>
</linearGradient>
<linearGradient id="paint4_linear_122_51975" x1="4.16821" y1="39.9966" x2="73.3309" y2="39.9966" gradientUnits="userSpaceOnUse">
<stop stop-color="#F8AB5E"/>
<stop offset="0.35" stop-color="#F36961"/>
<stop offset="0.65" stop-color="#A176C8"/>
<stop offset="1" stop-color="#759BEB"/>
</linearGradient>
<linearGradient id="paint5_linear_122_51975" x1="4.16821" y1="39.9966" x2="73.3309" y2="39.9966" gradientUnits="userSpaceOnUse">
<stop stop-color="#F8AB5E"/>
<stop offset="0.35" stop-color="#F36961"/>
<stop offset="0.65" stop-color="#A176C8"/>
<stop offset="1" stop-color="#759BEB"/>
</linearGradient>
<linearGradient id="paint6_linear_122_51975" x1="4.16821" y1="39.9966" x2="73.3309" y2="39.9966" gradientUnits="userSpaceOnUse">
<stop stop-color="#F8AB5E"/>
<stop offset="0.35" stop-color="#F36961"/>
<stop offset="0.65" stop-color="#A176C8"/>
<stop offset="1" stop-color="#759BEB"/>
</linearGradient>
</defs>
</svg>
