<svg width="28" height="28" viewBox="0 0 28 28" fill="none" xmlns="http://www.w3.org/2000/svg">
<path d="M12.5416 1.45844H7.42956C6.56263 1.45843 5.85894 1.45842 5.28817 1.50505C4.69906 1.55318 4.17491 1.65532 3.68785 1.90349C2.91952 2.29498 2.29485 2.91965 1.90337 3.68797C1.6552 4.17503 1.55306 4.69918 1.50493 5.28829C1.4583 5.85906 1.4583 6.56274 1.45831 7.42966V20.5705C1.4583 21.4375 1.4583 22.1411 1.50493 22.7119C1.55306 23.301 1.6552 23.8252 1.90337 24.3122C2.29485 25.0806 2.91952 25.7052 3.68785 26.0967C4.43311 26.4764 5.30223 26.5255 6.40663 26.5381C6.64042 26.5408 6.86555 26.4498 7.03181 26.2854C7.19808 26.1211 7.29165 25.897 7.29165 25.6632V18.6668C7.29165 17.5392 8.20573 16.6251 9.33331 16.6251H10.7916C11.605 16.6251 12.3603 16.862 12.9955 17.2702C13.3323 17.4866 13.7731 17.4469 14.0657 17.1736C14.3187 16.9374 14.6333 16.7637 14.9892 16.6797C15.5935 16.5371 16.2103 16.6788 16.6836 17.0335C16.9949 17.2667 17.4228 17.2665 17.7338 17.0328C18.075 16.7766 18.4977 16.6251 18.9583 16.6251C19.4971 16.6251 19.9855 16.8326 20.351 17.1738C20.6436 17.4469 21.0843 17.4867 21.421 17.2702L21.4638 17.2431C21.7196 17.0832 21.875 16.8028 21.875 16.5012V10.7916H15.75C13.9781 10.7916 12.5416 9.35522 12.5416 7.5833V1.45844Z" fill="#7E63DF"/>
<path d="M21.5741 9.04158C21.5741 9.04157 21.5741 9.0416 21.5741 9.04158C21.4459 8.83229 21.2731 8.66016 21.1117 8.4993L21.072 8.45965L14.8738 2.26144L14.8341 2.22171C14.6733 2.06028 14.5011 1.88755 14.2918 1.7593C14.2918 1.75926 14.2919 1.75933 14.2918 1.7593L14.2916 7.5833C14.2916 8.38872 14.9446 9.04164 15.75 9.04164L21.5741 9.04158Z" fill="#7E63DF"/>
<path fill-rule="evenodd" clip-rule="evenodd" d="M8.45831 18.6667C8.45831 18.1835 8.85006 17.7917 9.33331 17.7917H10.7916C12.4025 17.7917 13.7083 19.0976 13.7083 20.7084C13.7083 22.3192 12.4025 23.6251 10.7916 23.6251H10.2083V25.6667C10.2083 26.15 9.81656 26.5417 9.33331 26.5417C8.85006 26.5417 8.45831 26.15 8.45831 25.6667V18.6667ZM10.2083 21.8751H10.7916C11.436 21.8751 11.9583 21.3527 11.9583 20.7084C11.9583 20.0641 11.436 19.5417 10.7916 19.5417H10.2083V21.8751Z" fill="#7E63DF"/>
<path d="M16.2409 18.2754C16.0595 17.9124 15.6522 17.7219 15.2573 17.8151C14.8623 17.9084 14.5833 18.2609 14.5833 18.6667V25.6667C14.5833 26.15 14.9751 26.5417 15.4583 26.5417C15.9416 26.5417 16.3333 26.15 16.3333 25.6667V22.3733L18.1757 26.058C18.3572 26.421 18.7644 26.6116 19.1593 26.5183C19.5543 26.4251 19.8333 26.0725 19.8333 25.6667V18.6667C19.8333 18.1835 19.4416 17.7917 18.9583 17.7917C18.4751 17.7917 18.0833 18.1835 18.0833 18.6667V21.9602L16.2409 18.2754Z" fill="#7E63DF"/>
<path d="M20.7083 20.7084C20.7083 19.0976 22.0141 17.7917 23.625 17.7917C24.7898 17.7917 25.7934 18.4746 26.2605 19.4579C26.4679 19.8944 26.2821 20.4164 25.8456 20.6237C25.4091 20.8311 24.8872 20.6453 24.6798 20.2088C24.4916 19.8127 24.0891 19.5417 23.625 19.5417C22.9806 19.5417 22.4583 20.0641 22.4583 20.7084V23.6251C22.4583 24.2694 22.9806 24.7917 23.625 24.7917C24.2693 24.7917 24.7916 24.2694 24.7916 23.6251H24.2083C23.7251 23.6251 23.3333 23.2333 23.3333 22.7501C23.3333 22.2668 23.7251 21.8751 24.2083 21.8751H25.6666C26.1499 21.8751 26.5416 22.2668 26.5416 22.7501V23.6251C26.5416 25.2359 25.2358 26.5417 23.625 26.5417C22.0141 26.5417 20.7083 25.2359 20.7083 23.6251V20.7084Z" fill="#7E63DF"/>
</svg>
