<svg width="28" height="28" viewBox="0 0 28 28" fill="none" xmlns="http://www.w3.org/2000/svg">
<g clip-path="url(#clip0_123_2328)">
<path d="M0.0320408 13.9978H27.9995V23.8943C28.0089 24.436 27.9092 24.974 27.7066 25.4763C27.5039 25.9786 27.2023 26.4349 26.8198 26.818C26.4372 27.2011 25.9816 27.5031 25.48 27.7061C24.9784 27.909 24.4411 28.0088 23.9002 27.9994H4.13126C3.59036 28.0088 3.0531 27.909 2.55151 27.7061C2.04993 27.5031 1.59429 27.2011 1.21175 26.818C0.829214 26.4349 0.527616 25.9786 0.324937 25.4763C0.122258 24.974 0.0226465 24.436 0.0320408 23.8943V13.9978Z" fill="#353566"/>
<path d="M5.69926 12.425C5.38943 12.1147 4.99467 11.9034 4.56491 11.8178C4.13515 11.7322 3.68968 11.7761 3.28485 11.944C2.88002 12.1119 2.534 12.3963 2.29056 12.7612C2.04711 13.126 1.91718 13.555 1.91718 13.9938C1.91718 14.4326 2.04711 14.8616 2.29056 15.2264C2.534 15.5913 2.88002 15.8757 3.28485 16.0436C3.68968 16.2115 4.13515 16.2554 4.56491 16.1698C4.99467 16.0842 5.38943 15.8729 5.69926 15.5626H22.3308C22.6406 15.8729 23.0354 16.0842 23.4651 16.1698C23.8949 16.2554 24.3403 16.2115 24.7452 16.0436C25.15 15.8757 25.496 15.5913 25.7395 15.2264C25.9829 14.8616 26.1129 14.4326 26.1129 13.9938C26.1129 13.555 25.9829 13.126 25.7395 12.7612C25.496 12.3963 25.15 12.1119 24.7452 11.944C24.3403 11.7761 23.8949 11.7322 23.4651 11.8178C23.0354 11.9034 22.6406 12.1147 22.3308 12.425H5.69926Z" fill="#FFB13B"/>
<path d="M11.1219 26.794C10.7407 26.4139 10.4386 25.9618 10.2329 25.4641C10.0273 24.9663 9.92213 24.4326 9.92362 23.8939C9.54319 24.2741 9.09173 24.5755 8.59499 24.7809C8.09826 24.9863 7.56599 25.0917 7.02858 25.0911C6.49116 25.0905 5.95912 24.9839 5.46284 24.7774C4.96655 24.571 4.51574 24.2686 4.13615 23.8876C3.75655 23.5066 3.4556 23.0545 3.25048 22.5571C3.04536 22.0596 2.94009 21.5266 2.94067 20.9884C2.94126 20.4502 3.04769 19.9174 3.25389 19.4204C3.46009 18.9234 3.76203 18.472 4.14245 18.0918C3.6009 18.0986 3.06339 17.9976 2.56111 17.7947C2.05883 17.5918 1.60177 17.2911 1.21643 16.9099C0.831096 16.5288 0.52515 16.0749 0.316337 15.5744C0.107524 15.074 0 14.537 0 13.9946C0 13.4522 0.107524 12.9153 0.316337 12.4148C0.52515 11.9144 0.831096 11.4604 1.21643 11.0793C1.60177 10.6982 2.05883 10.3974 2.56111 10.1946C3.06339 9.99168 3.6009 9.89068 4.14245 9.89741C3.74793 9.52054 3.4326 9.06852 3.21498 8.56788C2.99737 8.06725 2.88186 7.52811 2.87525 6.98215C2.86864 6.43618 2.97106 5.89439 3.17648 5.38862C3.38191 4.88285 3.6862 4.4233 4.07148 4.03696C4.45676 3.65062 4.91525 3.34529 5.42003 3.13891C5.92481 2.93253 6.46568 2.82926 7.01087 2.83517C7.55607 2.84107 8.09458 2.95604 8.59478 3.17331C9.09498 3.39058 9.54678 3.70577 9.92362 4.10037C9.92333 3.56219 10.0289 3.02923 10.2343 2.5319C10.4397 2.03458 10.7409 1.58264 11.1207 1.20189C11.5005 0.821132 11.9514 0.51902 12.4478 0.3128C12.9442 0.10658 13.4763 0.000290876 14.0137 5.96182e-07C14.5511 -0.000289683 15.0833 0.105425 15.5799 0.311108C16.0765 0.516792 16.5278 0.818417 16.908 1.19876C17.2882 1.5791 17.5899 2.03072 17.7958 2.52782C18.0018 3.02492 18.1079 3.55777 18.1082 4.09595C18.4866 3.70752 18.9382 3.3982 19.437 3.18594C19.9357 2.97369 20.4715 2.86271 21.0134 2.85946C21.5552 2.85621 22.0923 2.96075 22.5936 3.16701C23.0948 3.37327 23.5501 3.67714 23.9331 4.061C24.3161 4.44487 24.6192 4.90107 24.8248 5.40316C25.0304 5.90525 25.1344 6.44322 25.1307 6.98586C25.127 7.52851 25.0158 8.06502 24.8035 8.56428C24.5912 9.06354 24.2819 9.51561 23.8938 9.89425H23.9001C24.9856 9.89425 26.0266 10.3261 26.7942 11.0948C27.5618 11.8634 27.993 12.906 27.993 13.993C27.993 15.0801 27.5618 16.1227 26.7942 16.8913C26.0266 17.66 24.9856 18.0918 23.9001 18.0918H23.8931C24.2813 18.4704 24.5906 18.9225 24.803 19.4217C25.0154 19.9209 25.1267 20.4574 25.1304 21.0001C25.1341 21.5427 25.0302 22.0807 24.8247 22.5828C24.6191 23.0849 24.3161 23.5412 23.9331 23.9251C23.5501 24.309 23.0948 24.6129 22.5937 24.8192C22.0925 25.0255 21.5554 25.1301 21.0135 25.1269C20.4716 25.1237 19.9358 25.0128 19.4371 24.8006C18.9383 24.5884 18.4866 24.2792 18.1082 23.8908C18.1087 24.7016 17.8691 25.4943 17.4195 26.1687C16.97 26.8431 16.3309 27.3687 15.5829 27.6792C14.835 27.9897 14.0119 28.071 13.2178 27.9129C12.4237 27.7547 11.6943 27.3643 11.1219 26.7909V26.794ZM13.7788 23.6539C13.7314 23.7011 13.699 23.7613 13.6858 23.8269C13.6726 23.8925 13.6791 23.9606 13.7046 24.0224C13.7301 24.0843 13.7733 24.1372 13.8288 24.1745C13.8844 24.2117 13.9497 24.2316 14.0165 24.2316C14.0834 24.2316 14.1487 24.2117 14.2042 24.1745C14.2598 24.1372 14.303 24.0843 14.3285 24.0224C14.3539 23.9606 14.3605 23.8925 14.3473 23.8269C14.3341 23.7613 14.3017 23.7011 14.2543 23.6539L14.0153 23.4158L13.7788 23.6539ZM20.6655 20.9945C20.6656 21.0611 20.6855 21.1261 20.7225 21.1814C20.7596 21.2367 20.8122 21.2798 20.8737 21.3051C20.9352 21.3305 21.0028 21.337 21.068 21.3238C21.1332 21.3106 21.1931 21.2784 21.24 21.2312C21.2869 21.184 21.3187 21.1239 21.3315 21.0585C21.3443 20.9931 21.3374 20.9254 21.3117 20.864C21.2861 20.8025 21.2428 20.7501 21.1874 20.7133C21.1319 20.6765 21.0669 20.657 21.0003 20.6572H20.6655V20.9945ZM6.68838 20.9945C6.68838 21.0839 6.72387 21.1697 6.78702 21.2329C6.85018 21.2962 6.93584 21.3317 7.02515 21.3317C7.11447 21.3317 7.20013 21.2962 7.26328 21.2329C7.32644 21.1697 7.36192 21.0839 7.36192 20.9945V20.6572H7.02515C6.93633 20.658 6.85141 20.6939 6.78883 20.7571C6.72626 20.8202 6.69107 20.9055 6.69091 20.9945H6.68838ZM23.6592 13.7556L23.4202 13.9924L23.6592 14.2324C23.6983 14.2717 23.7466 14.3007 23.7996 14.3169C23.8526 14.3331 23.9088 14.3359 23.9632 14.3252C24.0176 14.3144 24.0685 14.2904 24.1114 14.2553C24.1543 14.2202 24.188 14.175 24.2093 14.1238C24.2307 14.0726 24.2391 14.0169 24.2338 13.9616C24.2285 13.9063 24.2098 13.8532 24.1791 13.807C24.1485 13.7607 24.107 13.7227 24.0582 13.6963C24.0094 13.67 23.9549 13.656 23.8994 13.6558C23.8093 13.6559 23.7229 13.6918 23.6592 13.7556ZM3.89461 13.7556C3.83147 13.8191 3.79613 13.9052 3.79636 13.9949C3.7966 14.0845 3.83239 14.1704 3.89587 14.2337C3.95934 14.2969 4.0453 14.3323 4.13483 14.332C4.22436 14.3318 4.31013 14.296 4.37327 14.2324L4.61103 13.9924L4.37327 13.7556C4.342 13.7238 4.30474 13.6986 4.26365 13.6814C4.22257 13.6642 4.17847 13.6553 4.13394 13.6553C4.0894 13.6553 4.04531 13.6642 4.00423 13.6814C3.96314 13.6986 3.92588 13.7238 3.89461 13.7556ZM20.6655 6.99415V7.33204H21.0003C21.0675 7.33279 21.1334 7.31351 21.1897 7.27664C21.2459 7.23978 21.2899 7.18701 21.316 7.12503C21.3422 7.06306 21.3494 6.99468 21.3366 6.92861C21.3239 6.86254 21.2918 6.80176 21.2445 6.754C21.1972 6.70624 21.1367 6.67366 21.0708 6.66041C21.005 6.64716 20.9366 6.65383 20.8745 6.67958C20.8125 6.70533 20.7594 6.74899 20.7222 6.805C20.685 6.86102 20.6652 6.92686 20.6655 6.99415ZM6.68838 6.99415C6.68904 7.08345 6.72471 7.16892 6.78771 7.23212C6.85071 7.29533 6.93598 7.33121 7.02515 7.33204H7.36192V6.99415C7.36192 6.90471 7.32644 6.81893 7.26328 6.75568C7.20013 6.69244 7.11447 6.6569 7.02515 6.6569C6.93584 6.6569 6.85018 6.69244 6.78702 6.75568C6.72387 6.81893 6.68838 6.90471 6.68838 6.99415ZM13.7756 3.85533C13.7441 3.88651 13.7192 3.92364 13.7021 3.96457C13.685 4.00549 13.6763 4.04939 13.6763 4.09374C13.6763 4.13808 13.685 4.18199 13.7021 4.22291C13.7192 4.26384 13.7441 4.30096 13.7756 4.33215L14.0121 4.57214L14.2511 4.33215C14.2846 4.3014 14.3116 4.26419 14.3303 4.22274C14.3491 4.18129 14.3592 4.13648 14.3602 4.09099C14.3613 4.0455 14.353 4.00027 14.3361 3.95804C14.3192 3.91581 14.294 3.87744 14.2619 3.84524C14.2297 3.81305 14.1915 3.78769 14.1493 3.7707C14.1072 3.75371 14.062 3.74543 14.0166 3.74638C13.9712 3.74732 13.9264 3.75746 13.885 3.77618C13.8436 3.7949 13.8064 3.82183 13.7756 3.85533Z" fill="#353566"/>
<path d="M9.24369 6.99248C9.24344 6.55372 9.11329 6.1249 8.8697 5.76021C8.62611 5.39552 8.28002 5.11134 7.87517 4.94361C7.47032 4.77588 7.0249 4.73212 6.59523 4.81787C6.16555 4.90362 5.77091 5.11503 5.46119 5.42536C5.15148 5.7357 4.9406 6.13103 4.85522 6.56137C4.76984 6.99171 4.81379 7.43774 4.98151 7.84307C5.14923 8.2484 5.43319 8.59484 5.7975 8.83857C6.1618 9.0823 6.59009 9.21239 7.02822 9.21239L18.7886 20.9959C18.7888 21.4347 18.919 21.8635 19.1626 22.2282C19.4062 22.5929 19.7522 22.8771 20.1571 23.0448C20.5619 23.2125 21.0074 23.2563 21.437 23.1705C21.8667 23.0848 22.2614 22.8734 22.5711 22.5631C22.8808 22.2527 23.0917 21.8574 23.177 21.4271C23.2624 20.9967 23.2185 20.5507 23.0508 20.1453C22.883 19.74 22.5991 19.3936 22.2348 19.1498C21.8705 18.9061 21.4422 18.776 21.004 18.776L9.24369 6.99248Z" fill="#FFB13B"/>
<path d="M15.583 5.66172C15.8931 5.3514 16.1042 4.95597 16.1899 4.52543C16.2755 4.0949 16.2317 3.6486 16.064 3.243C15.8963 2.8374 15.6123 2.49071 15.2478 2.24679C14.8833 2.00287 14.4548 1.87268 14.0164 1.87268C13.5781 1.87268 13.1496 2.00287 12.7851 2.24679C12.4206 2.49071 12.1366 2.8374 11.9689 3.243C11.8012 3.6486 11.7574 4.0949 11.843 4.52543C11.9287 4.95597 12.1399 5.3514 12.4499 5.66172V22.324C12.1399 22.6343 11.9287 23.0298 11.843 23.4603C11.7574 23.8909 11.8012 24.3372 11.9689 24.7428C12.1366 25.1484 12.4206 25.495 12.7851 25.739C13.1496 25.9829 13.5781 26.1131 14.0164 26.1131C14.4548 26.1131 14.8833 25.9829 15.2478 25.739C15.6123 25.495 15.8963 25.1484 16.064 24.7428C16.2317 24.3372 16.2755 23.8909 16.1899 23.4603C16.1042 23.0298 15.8931 22.6343 15.583 22.324V5.66172Z" fill="#FFB13B"/>
<path d="M21.0035 9.2118C21.4419 9.21205 21.8706 9.08207 22.2353 8.83829C22.6001 8.59452 22.8844 8.2479 23.0523 7.84229C23.2203 7.43667 23.2644 6.99029 23.179 6.55958C23.0936 6.12888 22.8826 5.7332 22.5726 5.42262C22.2627 5.11203 21.8677 4.90048 21.4376 4.81472C21.0076 4.72896 20.5618 4.77285 20.1567 4.94084C19.7516 5.10882 19.4053 5.39335 19.1617 5.75844C18.918 6.12353 18.788 6.55278 18.788 6.99189L7.02763 18.7754C6.58915 18.7752 6.16044 18.9052 5.79573 19.1489C5.43103 19.3927 5.14671 19.7393 4.97873 20.145C4.81076 20.5506 4.76668 20.997 4.85207 21.4277C4.93746 21.8584 5.14849 22.254 5.45845 22.5646C5.76842 22.8752 6.1634 23.0868 6.59344 23.1725C7.02348 23.2583 7.46925 23.2144 7.87438 23.0464C8.27951 22.8784 8.62579 22.5939 8.86942 22.2288C9.11306 21.8637 9.2431 21.4345 9.2431 20.9953L21.0035 9.2118Z" fill="#FFB13B"/>
<path d="M5.69926 12.425C5.38943 12.1147 4.99467 11.9034 4.56491 11.8178C4.13515 11.7322 3.68968 11.7761 3.28485 11.944C2.88002 12.1119 2.534 12.3963 2.29056 12.7612C2.04711 13.126 1.91718 13.555 1.91718 13.9938C1.91718 14.4326 2.04711 14.8616 2.29056 15.2264C2.534 15.5913 2.88002 15.8757 3.28485 16.0436C3.68968 16.2115 4.13515 16.2554 4.56491 16.1698C4.99467 16.0842 5.38943 15.8729 5.69926 15.5626H22.3308C22.6406 15.8729 23.0354 16.0842 23.4651 16.1698C23.8949 16.2554 24.3403 16.2115 24.7452 16.0436C25.15 15.8757 25.496 15.5913 25.7395 15.2264C25.9829 14.8616 26.1129 14.4326 26.1129 13.9938C26.1129 13.555 25.9829 13.126 25.7395 12.7612C25.496 12.3963 25.15 12.1119 24.7452 11.944C24.3403 11.7761 23.8949 11.7322 23.4651 11.8178C23.0354 11.9034 22.6406 12.1147 22.3308 12.425H5.69926Z" fill="#FFB950"/>
<path d="M9.24192 6.99248C9.24167 6.55372 9.11152 6.1249 8.86793 5.76021C8.62434 5.39552 8.27825 5.11134 7.8734 4.94361C7.46855 4.77588 7.02313 4.73212 6.59346 4.81787C6.16378 4.90362 5.76914 5.11503 5.45942 5.42536C5.14971 5.7357 4.93883 6.13103 4.85345 6.56137C4.76807 6.99171 4.81202 7.43774 4.97974 7.84307C5.14746 8.2484 5.43142 8.59484 5.79573 8.83857C6.16003 9.0823 6.58832 9.21239 7.02645 9.21239L18.7868 20.9959C18.7871 21.4347 18.9172 21.8635 19.1608 22.2282C19.4044 22.5929 19.7505 22.8771 20.1553 23.0448C20.5602 23.2125 21.0056 23.2563 21.4353 23.1705C21.8649 23.0848 22.2596 22.8734 22.5693 22.5631C22.879 22.2527 23.0899 21.8574 23.1753 21.4271C23.2607 20.9967 23.2167 20.5507 23.049 20.1453C22.8813 19.74 22.5973 19.3936 22.233 19.1498C21.8687 18.9061 21.4404 18.776 21.0023 18.776L9.24192 6.99248Z" fill="#FFB950"/>
<path d="M15.5815 5.66252C15.8915 5.3522 16.1027 4.95676 16.1883 4.52623C16.274 4.09569 16.2302 3.64939 16.0625 3.24379C15.8948 2.83819 15.6107 2.4915 15.2463 2.24759C14.8818 2.00367 14.4533 1.87347 14.0149 1.87347C13.5766 1.87347 13.1481 2.00367 12.7836 2.24759C12.4191 2.4915 12.1351 2.83819 11.9674 3.24379C11.7997 3.64939 11.7559 4.09569 11.8415 4.52623C11.9271 4.95676 12.1383 5.3522 12.4484 5.66252V22.3248C12.1383 22.6351 11.9271 23.0306 11.8415 23.4611C11.7559 23.8916 11.7997 24.3379 11.9674 24.7435C12.1351 25.1491 12.4191 25.4958 12.7836 25.7398C13.1481 25.9837 13.5766 26.1139 14.0149 26.1139C14.4533 26.1139 14.8818 25.9837 15.2463 25.7398C15.6107 25.4958 15.8948 25.1491 16.0625 24.7435C16.2302 24.3379 16.274 23.8916 16.1883 23.4611C16.1027 23.0306 15.8915 22.6351 15.5815 22.3248V5.66252Z" fill="#FFB950"/>
<path d="M21.0048 9.2118C21.4433 9.21205 21.872 9.08207 22.2367 8.83829C22.6014 8.59452 22.8857 8.2479 23.0537 7.84229C23.2217 7.43667 23.2657 6.99029 23.1804 6.55958C23.095 6.12888 22.8839 5.7332 22.574 5.42262C22.264 5.11203 21.869 4.90048 21.439 4.81472C21.0089 4.72896 20.5632 4.77285 20.158 4.94084C19.7529 5.10882 19.4066 5.39335 19.163 5.75844C18.9194 6.12353 18.7893 6.55278 18.7893 6.99189L7.02897 18.7754C6.59049 18.7752 6.16178 18.9052 5.79708 19.1489C5.43237 19.3927 5.14805 19.7393 4.98008 20.145C4.8121 20.5506 4.76802 20.997 4.85342 21.4277C4.93881 21.8584 5.14983 22.254 5.4598 22.5646C5.76976 22.8752 6.16474 23.0868 6.59478 23.1725C7.02482 23.2583 7.4706 23.2144 7.87572 23.0464C8.28085 22.8784 8.62713 22.5939 8.87077 22.2288C9.1144 21.8637 9.24444 21.4345 9.24444 20.9953L21.0048 9.2118Z" fill="#FFB950"/>
<path d="M0.0320408 13.9978H27.9995V23.8943C28.0089 24.436 27.9092 24.974 27.7066 25.4763C27.5039 25.9786 27.2023 26.4349 26.8198 26.818C26.4372 27.2011 25.9816 27.5031 25.48 27.7061C24.9784 27.909 24.4411 28.0088 23.9002 27.9994H4.13126C3.59036 28.0088 3.0531 27.909 2.55151 27.7061C2.04993 27.5031 1.59429 27.2011 1.21175 26.818C0.829214 26.4349 0.527616 25.9786 0.324937 25.4763C0.122258 24.974 0.0226465 24.436 0.0320408 23.8943V13.9978Z" fill="#353566"/>
<path d="M4.2274 20.9867C3.80615 20.5646 3.49532 20.045 3.32246 19.474C3.14961 18.9029 3.12005 18.2979 3.23641 17.7127C3.35276 17.1274 3.61144 16.5799 3.98954 16.1187C4.36764 15.6574 4.85349 15.2967 5.40404 15.0684C5.9546 14.8401 6.55288 14.7513 7.14589 14.8099C7.73891 14.8684 8.30835 15.0725 8.80379 15.4041C9.29923 15.7356 9.70538 16.1844 9.98626 16.7107C10.2671 17.237 10.4141 17.8246 10.4141 18.4213H8.29131C8.29144 18.174 8.23067 17.9306 8.1144 17.7124C7.99812 17.4943 7.82993 17.3082 7.6247 17.1707C7.41948 17.0332 7.18357 16.9485 6.93786 16.9241C6.69214 16.8997 6.44422 16.9364 6.21603 17.0309C5.98785 17.1253 5.78645 17.2747 5.62967 17.4658C5.47289 17.6568 5.36558 17.8836 5.31723 18.1261C5.26887 18.3686 5.28098 18.6192 5.35247 18.8559C5.42396 19.0926 5.55263 19.308 5.72709 19.483C6.01348 19.7573 6.39166 19.9149 6.78784 19.925C7.73936 19.9717 8.64522 20.3476 9.3508 20.9886C9.77206 21.4107 10.0829 21.9302 10.2557 22.5013C10.4286 23.0724 10.4582 23.6773 10.3418 24.2626C10.2254 24.8479 9.96675 25.3954 9.58866 25.8566C9.21056 26.3178 8.72471 26.6786 8.17415 26.9069C7.6236 27.1351 7.02532 27.224 6.4323 27.1654C5.83929 27.1069 5.26984 26.9028 4.7744 26.5712C4.27896 26.2396 3.87282 25.7908 3.59194 25.2645C3.31106 24.7382 3.16412 24.1507 3.16412 23.554H5.28689C5.28666 23.8013 5.34735 24.0449 5.4636 24.2631C5.57984 24.4813 5.74803 24.6675 5.95328 24.805C6.15854 24.9426 6.3945 25.0273 6.64028 25.0518C6.88606 25.0762 7.13405 25.0395 7.36229 24.945C7.59052 24.8505 7.79195 24.701 7.94873 24.5099C8.10551 24.3188 8.21279 24.0919 8.26107 23.8493C8.30936 23.6068 8.29715 23.356 8.22553 23.1193C8.15391 22.8826 8.02508 22.6672 7.85048 22.4923C7.54905 22.2411 7.17887 22.0871 6.78847 22.0502C5.84362 21.9772 4.94656 21.6047 4.2274 20.9867Z" fill="#F9FAFB"/>
<path d="M17.6625 14.7971L15.0989 27.1875H12.9761L10.4144 14.7971H12.5372L14.0394 22.0536L15.5397 14.7971H17.6625Z" fill="#F9FAFB"/>
<path d="M21.2863 19.9263H24.91V23.5552C24.9163 24.0359 24.8273 24.513 24.648 24.9588C24.4687 25.4047 24.2028 25.8105 23.8656 26.1526C23.5285 26.4947 23.1268 26.7664 22.684 26.9518C22.2411 27.1372 21.766 27.2327 21.286 27.2327C20.806 27.2327 20.3308 27.1372 19.888 26.9518C19.4451 26.7664 19.0435 26.4947 18.7063 26.1526C18.3692 25.8105 18.1032 25.4047 17.924 24.9588C17.7447 24.513 17.6556 24.0359 17.6619 23.5552V18.4232C17.6745 17.469 18.0619 16.5581 18.7401 15.8878C19.4184 15.2174 20.333 14.8416 21.286 14.8416C22.2389 14.8416 23.1535 15.2174 23.8318 15.8878C24.5101 16.5581 24.8974 17.469 24.91 18.4232H22.7872C22.7872 18.0246 22.6291 17.6423 22.3476 17.3604C22.0661 17.0785 21.6844 16.9201 21.2863 16.9201C20.8882 16.9201 20.5064 17.0785 20.225 17.3604C19.9435 17.6423 19.7853 18.0246 19.7853 18.4232V23.5552C19.7853 23.9539 19.9435 24.3362 20.225 24.6181C20.5064 24.9 20.8882 25.0583 21.2863 25.0583C21.6844 25.0583 22.0661 24.9 22.3476 24.6181C22.6291 24.3362 22.7872 23.9539 22.7872 23.5552V22.0521H21.2863V19.9251V19.9263Z" fill="#F9FAFB"/>
</g>
<defs>
<clipPath id="clip0_123_2328">
<rect width="28" height="28" fill="white"/>
</clipPath>
</defs>
</svg>
