<svg width="16" height="16" viewBox="0 0 16 16" fill="none" xmlns="http://www.w3.org/2000/svg">
<path d="M11.6754 7.32181C11.7499 7.3518 11.8177 7.38513 11.8889 7.41512C12.8785 7.88502 13.6037 8.58821 13.9833 9.46136C14.5154 10.6778 14.5662 12.654 12.9564 14.2337C11.7296 15.4401 10.2351 15.9833 8.1237 16H8.11353C5.73445 15.9833 3.90777 15.1968 2.67756 13.6605C1.58291 12.2941 1.02033 10.3912 1 8.00833V7.99833V7.99167C1.01695 5.60883 1.57952 3.70589 2.67417 2.33951C3.90438 0.803166 5.73445 0.0166632 8.11353 0H8.1237C10.5062 0.0166632 12.3566 0.799833 13.6241 2.32951C14.2476 3.08602 14.7085 3.99583 15 5.05228L13.6308 5.41221C13.3902 4.55238 13.0276 3.8192 12.5396 3.23266C11.55 2.03958 10.0656 1.42637 8.11692 1.41304C6.18519 1.4297 4.72452 2.03958 3.77221 3.22599C2.88429 4.33576 2.42338 5.9421 2.40644 7.99833C2.42338 10.0546 2.88429 11.6609 3.77221 12.774C4.72113 13.9604 6.18519 14.5703 8.11692 14.587C9.85887 14.5736 11.0111 14.167 11.9702 13.2239C13.0649 12.1508 13.0445 10.8311 12.6955 10.0279C12.4887 9.55468 12.116 9.16142 11.6144 8.86482C11.489 9.7613 11.2145 10.4745 10.7773 11.0244C10.1978 11.7509 9.37424 12.1441 8.31348 12.2008C7.51368 12.2441 6.74437 12.0542 6.14791 11.6676C5.44299 11.2077 5.02953 10.5078 4.98548 9.69131C4.90075 8.08165 6.19535 6.92522 8.21181 6.81191C8.92689 6.77192 9.59792 6.80192 10.2181 6.90523C10.1368 6.412 9.97071 6.01875 9.72331 5.73214C9.38441 5.34222 8.85572 5.14226 8.15759 5.13893H8.13387C7.57129 5.13893 6.81215 5.29223 6.32752 6.01541L5.1617 5.22891C5.81239 4.25911 6.86638 3.72589 8.13725 3.72589H8.16437C10.2859 3.73922 11.55 5.04228 11.6788 7.31514L11.672 7.32181H11.6754ZM6.38853 9.61466C6.43258 10.4512 7.351 10.8411 8.23893 10.7911C9.10651 10.7444 10.0893 10.4112 10.2554 8.35159C9.80804 8.25495 9.31324 8.20496 8.78456 8.20496C8.62188 8.20496 8.45921 8.20829 8.29654 8.21829C6.84265 8.29827 6.35802 8.99146 6.39191 9.61133L6.38853 9.61466Z" fill="white"/>
</svg>
