<svg width="16" height="16" viewBox="0 0 16 16" fill="none" xmlns="http://www.w3.org/2000/svg">
<path d="M15 6.55937C13.6237 6.56232 12.2813 6.13271 11.1625 5.33125V10.9187C11.1622 11.9536 10.8459 12.9636 10.256 13.8139C9.66605 14.6641 8.83059 15.3139 7.86134 15.6764C6.89208 16.0389 5.83525 16.0969 4.83217 15.8425C3.82909 15.5881 2.92759 15.0335 2.24825 14.2529C1.5689 13.4723 1.14409 12.5029 1.03064 11.4743C0.91718 10.4457 1.12049 9.40696 1.61336 8.49704C2.10624 7.58713 2.86519 6.84939 3.78871 6.3825C4.71223 5.9156 5.75629 5.74182 6.78125 5.88438V8.69375C6.31259 8.54622 5.80929 8.55053 5.34322 8.70608C4.87715 8.86163 4.47215 9.16046 4.18603 9.55991C3.89992 9.95935 3.74732 10.439 3.75004 10.9303C3.75276 11.4216 3.91064 11.8996 4.20115 12.2958C4.49167 12.6921 4.89995 12.9864 5.36771 13.1368C5.83547 13.2872 6.33879 13.2859 6.8058 13.1332C7.2728 12.9805 7.67962 12.6842 7.96817 12.2865C8.25671 11.8888 8.41222 11.4101 8.4125 10.9187V0H11.1625C11.161 0.232583 11.1808 0.464814 11.2219 0.69375C11.3175 1.20406 11.5162 1.68951 11.8058 2.12044C12.0954 2.55136 12.4699 2.91869 12.9063 3.2C13.5274 3.61026 14.2556 3.82871 15 3.82812V6.55937Z" fill="white"/>
</svg>
