<svg width="20" height="20" viewBox="0 0 20 20" fill="none" xmlns="http://www.w3.org/2000/svg">
<path d="M10.755 4.22337C10.755 2.90659 9.12474 2.37318 8.33252 3.363L2.66688 10.4435C1.93667 11.3563 2.60318 12.6753 3.72726 12.6753H6.614V16.9616C6.614 18.2778 8.24369 18.8117 9.03647 17.8225L14.701 10.7481C15.4318 9.83531 14.7653 8.5163 13.6406 8.5163H10.7544V4.22393L10.755 4.22337Z" stroke="#353566" stroke-width="1.5" stroke-linejoin="round"/>
<path d="M17.1622 1.7109C17.4427 1.54965 17.7567 1.86267 17.5947 2.14276L16.5957 3.87522C16.5393 3.97286 16.5393 4.09338 16.5957 4.19103L17.5947 5.92349C17.7561 6.20358 17.4427 6.51715 17.1622 6.35535L15.4275 5.35772C15.3297 5.30136 15.2091 5.30136 15.1113 5.35772L13.3766 6.35535C13.0961 6.5166 12.7821 6.20358 12.9441 5.92349L13.9431 4.19103C13.9995 4.09338 13.9995 3.97286 13.9431 3.87522L12.9441 2.14276C12.7827 1.86267 13.0961 1.54909 13.3766 1.7109L15.1113 2.70853C15.2091 2.76488 15.3297 2.76488 15.4275 2.70853L17.1622 1.7109Z" fill="#353566"/>
</svg>
