<svg width="22" height="24" viewBox="0 0 22 24" fill="none" xmlns="http://www.w3.org/2000/svg">
<path d="M12.05 3.6816C12.05 1.78543 9.70965 1.01733 8.57237 2.44266L0.438982 12.6386C-0.609271 13.953 0.347551 15.8524 1.96124 15.8524H6.10532V22.0246C6.10532 23.92 8.44484 24.6889 9.58293 23.2643L17.7147 13.0773C18.7638 11.7628 17.8069 9.86342 16.1925 9.86342H12.0492V3.6824L12.05 3.6816Z" fill="white"/>
<path d="M21.2476 0.063702C21.6502 -0.168498 22.1009 0.282243 21.8683 0.68558L20.4343 3.18032C20.3533 3.32093 20.3533 3.49448 20.4343 3.63508L21.8683 6.12983C22.1001 6.53316 21.6502 6.98471 21.2476 6.7517L18.7573 5.31512C18.6169 5.23397 18.4437 5.23397 18.3033 5.31512L15.813 6.7517C15.4104 6.9839 14.9596 6.53316 15.1922 6.12983L16.6263 3.63508C16.7073 3.49448 16.7073 3.32093 16.6263 3.18032L15.1922 0.68558C14.9604 0.282243 15.4104 -0.169301 15.813 0.063702L18.3033 1.50029C18.4437 1.58144 18.6169 1.58144 18.7573 1.50029L21.2476 0.063702Z" fill="white"/>
</svg>
