<svg width="185" height="40" viewBox="0 0 185 40" fill="none" xmlns="http://www.w3.org/2000/svg">
<path d="M124.576 12.8571C124.403 12.8638 123.67 12.8598 123.508 12.8571C120.204 12.7969 120.244 8.05109 123.508 7.94932C123.674 7.94396 124.403 7.94262 124.576 7.94932C127.848 8.06983 127.86 12.7339 124.576 12.8571ZM98.2949 20.0414C98.9203 21.4756 99.2323 23.1762 99.2323 25.1434C99.2323 26.9712 98.9551 28.6023 98.3994 30.0378C97.8436 31.4492 97.0107 32.5714 95.9006 33.4043C94.8133 34.2372 93.4474 34.6537 91.8056 34.6537C90.6487 34.6537 89.6658 34.4341 88.8556 33.9935C88.0696 33.5543 87.4094 32.941 86.8777 32.1536C86.3689 31.3434 85.9404 30.3833 85.5935 29.2732H84.9334C85.0726 29.8985 85.1999 30.5346 85.315 31.1827C85.4302 31.8308 85.5239 32.4669 85.5922 33.0923C85.6618 33.6935 85.6967 34.2841 85.6967 34.8626V39.9994H80.6991V15.9464H84.8289L84.8637 21.0136L85.4891 21.0484C85.698 19.8218 86.0555 18.792 86.5644 17.9591C87.096 17.1262 87.779 16.5008 88.6119 16.0844C89.4448 15.6679 90.4049 15.459 91.4923 15.459C93.1126 15.459 94.4999 15.8634 95.6569 16.6736C96.8139 17.4596 97.6937 18.5845 98.2949 20.0414ZM93.9911 25.1795C93.9911 24.0225 93.829 23.0396 93.505 22.2295C93.1809 21.3966 92.7176 20.7484 92.1163 20.2851C91.5151 19.8231 90.7973 19.5915 89.9644 19.5915C89.2239 19.5915 88.5878 19.7535 88.0548 20.0776C87.5232 20.4016 87.0719 20.8301 86.701 21.3618C86.3542 21.8934 86.0997 22.4732 85.9377 23.0972C85.7757 23.6985 85.6953 24.277 85.6953 24.8327V25.4915C85.6953 25.9308 85.7529 26.3941 85.8694 26.8802C85.9846 27.3435 86.1707 27.8055 86.4251 28.2688C86.6796 28.7081 86.9809 29.1138 87.3277 29.4834C87.6745 29.8302 88.0803 30.1195 88.5423 30.3511C89.0042 30.56 89.5144 30.6631 90.0688 30.6631C90.9017 30.6631 91.6075 30.4315 92.1859 29.9695C92.7644 29.5062 93.2037 28.8594 93.505 28.0265C93.829 27.1935 93.9911 26.2441 93.9911 25.1809V25.1795ZM78.2352 31.6701C78.3048 32.5031 78.3745 33.336 78.4441 34.1689H74.0358C73.9434 33.5904 73.851 32.9316 73.7586 32.1911C73.6889 31.4278 73.6314 30.6631 73.5845 29.8999H72.9591C72.6351 30.7783 72.1717 31.5778 71.5705 32.2942C70.9692 33.0119 70.2287 33.5904 69.3489 34.0296C68.4932 34.4461 67.509 34.655 66.3989 34.655C65.3812 34.655 64.4786 34.4582 63.6912 34.0645C62.9052 33.648 62.2919 33.0575 61.8513 32.2942C61.4121 31.5309 61.1925 30.5815 61.1925 29.4486C61.1925 28.4536 61.3772 27.6207 61.7482 26.9498C62.1419 26.2789 62.7083 25.7353 63.4488 25.3188C64.1894 24.9023 65.104 24.5555 66.1913 24.277C67.2787 23.9998 68.5173 23.7561 69.9046 23.5485C70.6452 23.4333 71.2464 23.3289 71.7098 23.2365C72.1958 23.1213 72.5547 22.9472 72.7851 22.7156C73.0167 22.4612 73.1319 22.1023 73.1319 21.6403C73.1319 20.9922 72.9002 20.4364 72.4382 19.9744C71.9749 19.5111 71.2464 19.2794 70.2515 19.2794C69.5806 19.2794 68.9552 19.3946 68.3767 19.6263C67.821 19.8579 67.3349 20.2048 66.9184 20.6681C66.5248 21.1314 66.2355 21.7206 66.0507 22.4384L61.6424 21.0846C61.9209 20.1365 62.3133 19.3143 62.8221 18.6206C63.3538 17.927 63.9912 17.3485 64.7317 16.8851C65.4722 16.399 66.3172 16.0402 67.2653 15.8085C68.2134 15.5768 69.2431 15.4617 70.3546 15.4617C72.1356 15.4617 73.5832 15.7509 74.6933 16.3294C75.8275 16.8851 76.6711 17.7636 77.2269 18.9674C77.7826 20.1472 78.0598 21.6751 78.0598 23.5485V26.6726C78.0598 27.4828 78.0718 28.3036 78.0946 29.1366C78.1415 29.9695 78.1883 30.8145 78.2352 31.6701ZM73.2363 27.539L73.1814 25.2492C72.9672 25.3509 72.7462 25.446 72.5065 25.5264C71.9508 25.6884 71.3723 25.8156 70.771 25.908C70.1925 26.0004 69.6141 26.1048 69.0356 26.22C68.4571 26.3352 67.9362 26.4865 67.4742 26.6713C67.035 26.8561 66.6761 27.1105 66.3975 27.4346C66.1431 27.7359 66.0159 28.163 66.0159 28.7188C66.0159 29.4365 66.2476 30.003 66.7096 30.4194C67.1715 30.8359 67.7741 31.0448 68.5147 31.0448C68.9539 31.0448 69.3944 30.9631 69.8337 30.8024C70.297 30.6404 70.7362 30.4208 71.1527 30.1436C71.5919 29.8423 71.9856 29.4727 72.3324 29.0321C72.702 28.5929 73.0033 28.0948 73.235 27.539H73.2363ZM48.7562 29.5865L60.002 16.3964V11.2596H43.3061V15.459H54.517V15.8755L42.9244 29.4472V34.1676H60.4519V29.9682H48.7549L48.7562 29.5865ZM163.693 19.7642C164.503 21.1756 164.907 22.9459 164.907 25.0751C164.907 27.227 164.491 29.0201 163.658 30.4556C162.848 31.867 161.738 32.9195 160.326 33.6145C158.937 34.3082 157.353 34.6563 155.571 34.6563C153.743 34.6563 152.135 34.2975 150.746 33.5797C149.358 32.8392 148.27 31.7639 147.483 30.3525C146.697 28.9183 146.303 27.136 146.303 25.0068C146.303 22.8776 146.697 21.1073 147.483 19.6959C148.293 18.2845 149.392 17.232 150.78 16.537C152.191 15.8192 153.787 15.4617 155.57 15.4617C157.397 15.4617 159.006 15.8206 160.394 16.537C161.806 17.2547 162.905 18.33 163.691 19.7655L163.693 19.7642ZM159.875 25.3523C159.875 24.0801 159.701 23.0035 159.354 22.1237C159.03 21.2211 158.544 20.5382 157.896 20.0762C157.248 19.5901 156.427 19.3477 155.432 19.3477C154.576 19.3477 153.835 19.5566 153.21 19.9731C152.585 20.3668 152.111 20.9908 151.787 21.8478C151.463 22.6808 151.301 23.7105 151.301 24.9372C151.301 26.9043 151.694 28.396 152.48 29.4151C153.268 30.4328 154.355 30.943 155.742 30.943C156.645 30.943 157.397 30.7341 157.999 30.3177C158.624 29.9012 159.086 29.2758 159.387 28.4429C159.711 27.5872 159.873 26.5575 159.873 25.3536L159.875 25.3523ZM118.695 20.0414C119.32 21.4756 119.632 23.1762 119.632 25.1434C119.632 26.9712 119.355 28.6023 118.799 30.0378C118.244 31.4492 117.411 32.5714 116.3 33.4043C115.213 34.2372 113.847 34.6537 112.206 34.6537C111.049 34.6537 110.064 34.4341 109.255 33.9935C108.468 33.5543 107.809 32.941 107.278 32.1536C106.769 31.3434 106.34 30.3833 105.993 29.2732H105.333C105.473 29.8985 105.6 30.5346 105.715 31.1827C105.83 31.8308 105.924 32.4669 105.992 33.0923C106.062 33.6935 106.097 34.2841 106.097 34.8626V39.9994H101.098V15.9464H105.229L105.264 21.0136L105.889 21.0484C106.098 19.8218 106.455 18.792 106.964 17.9591C107.496 17.1262 108.179 16.5008 109.012 16.0844C109.845 15.6679 110.805 15.459 111.892 15.459C113.511 15.459 114.9 15.8634 116.057 16.6736C117.214 17.4596 118.094 18.5845 118.695 20.0414ZM114.39 25.1795C114.39 24.0225 114.228 23.0396 113.903 22.2295C113.579 21.3966 113.116 20.7484 112.515 20.2851C111.914 19.8231 111.196 19.5915 110.363 19.5915C109.622 19.5915 108.986 19.7535 108.455 20.0776C107.923 20.4016 107.472 20.8301 107.101 21.3618C106.754 21.8934 106.5 22.4732 106.338 23.0972C106.176 23.6985 106.095 24.277 106.095 24.8327V25.4915C106.095 25.9308 106.153 26.3941 106.269 26.8802C106.384 27.3435 106.571 27.8055 106.825 28.2688C107.079 28.7081 107.381 29.1138 107.728 29.4834C108.074 29.8302 108.48 30.1195 108.942 30.3511C109.404 30.56 109.914 30.6631 110.469 30.6631C111.302 30.6631 112.007 30.4315 112.586 29.9695C113.164 29.5075 113.604 28.8594 113.905 28.0265C114.229 27.1935 114.391 26.2441 114.391 25.1809L114.39 25.1795ZM182.657 17.6819C181.57 16.2009 179.972 15.4603 177.867 15.4603C176.71 15.4603 175.703 15.6799 174.847 16.1192C174.014 16.5584 173.319 17.2186 172.765 18.0984C172.209 18.9768 171.782 20.0762 171.481 21.3952H170.787L170.822 15.9451H166.727V34.1676H171.726V25.9067C171.749 24.7497 171.911 23.7079 172.212 22.7825C172.536 21.8345 173.01 21.0698 173.635 20.4913C174.261 19.9128 175.035 19.6236 175.961 19.6236C177.049 19.6236 177.871 20.0749 178.425 20.9774C179.004 21.8572 179.293 23.2686 179.293 25.2117V34.1662H184.325V24.6559C184.325 21.4863 183.77 19.1603 182.66 17.6792L182.657 17.6819ZM141.291 28.9973C141.036 29.553 140.632 30.015 140.076 30.386C139.52 30.7328 138.781 30.9069 137.855 30.9069C136.882 30.9069 136.062 30.6872 135.391 30.248C134.743 29.786 134.246 29.1259 133.898 28.2702C133.574 27.3904 133.412 26.3258 133.412 25.0764C133.412 24.198 133.493 23.4106 133.654 22.7169C133.839 21.9992 134.093 21.3979 134.417 20.9118C134.764 20.403 135.18 20.0213 135.667 19.7669C136.153 19.4883 136.731 19.3504 137.402 19.3504C138.05 19.3504 138.629 19.4897 139.138 19.7669C139.669 20.0213 140.086 20.415 140.387 20.9466C140.711 21.4555 140.908 22.0688 140.977 22.7866L145.593 21.2935C145.339 20.1137 144.865 19.0947 144.17 18.239C143.499 17.3605 142.608 16.6776 141.497 16.1915C140.41 15.7054 139.125 15.463 137.644 15.463C136.163 15.463 134.844 15.7054 133.687 16.1915C132.53 16.6776 131.558 17.3605 130.772 18.239C129.986 19.1188 129.383 20.1592 128.967 21.3631C128.573 22.5428 128.376 23.8511 128.376 25.2853C128.376 26.6512 128.573 27.9113 128.967 29.0683C129.361 30.2025 129.95 31.1854 130.737 32.0183C131.525 32.8512 132.508 33.4994 133.687 33.9614C134.867 34.4247 136.244 34.6563 137.817 34.6563C139.159 34.6563 140.316 34.4943 141.288 34.1703C142.283 33.8234 143.128 33.3601 143.822 32.7816C144.517 32.2031 145.048 31.5202 145.418 30.7341C145.812 29.9467 146.066 29.1031 146.181 28.2005L141.808 27.2284C141.738 27.8296 141.564 28.4202 141.287 28.9986L141.291 28.9973ZM121.495 34.1689H126.494V15.9464H121.495V34.1689Z" fill="#353566"/>
<path d="M20.1191 6.13612C20.1191 2.97585 16.2116 1.69567 14.3128 4.07123L0.732942 21.0644C-1.01726 23.2552 0.580285 26.4208 3.27456 26.4208H10.1937V36.7078C10.1937 39.8667 14.0998 41.1483 16 38.774L29.5772 21.7956C31.3287 19.6048 29.7312 16.4392 27.0356 16.4392H20.1178V6.13746L20.1191 6.13612Z" fill="url(#paint0_linear_19_246)"/>
<path d="M35.4763 0.10617C36.1485 -0.28083 36.9011 0.470405 36.5127 1.14263L34.1184 5.30054C33.9832 5.53489 33.9832 5.82413 34.1184 6.05847L36.5127 10.2164C36.8997 10.8886 36.1485 11.6412 35.4763 11.2528L31.3184 8.85853C31.084 8.72328 30.7948 8.72328 30.5604 8.85853L26.4025 11.2528C25.7303 11.6398 24.9777 10.8886 25.3661 10.2164L27.7604 6.05847C27.8956 5.82413 27.8956 5.53489 27.7604 5.30054L25.3661 1.14263C24.9791 0.470405 25.7303 -0.282169 26.4025 0.10617L30.5604 2.50048C30.7948 2.63573 31.084 2.63573 31.3184 2.50048L35.4763 0.10617Z" fill="#F58855"/>
<defs>
<linearGradient id="paint0_linear_19_246" x1="25.7732" y1="10.8437" x2="5.30174" y2="31.4075" gradientUnits="userSpaceOnUse">
<stop stop-color="#6060FF"/>
<stop offset="1" stop-color="#5555DD"/>
</linearGradient>
</defs>
</svg>
