<svg width="147" height="32" viewBox="0 0 147 32" fill="none" xmlns="http://www.w3.org/2000/svg">
<g clip-path="url(#clip0_124_3873)">
<path d="M102.137 8.8158C102.137 9.69749 101.424 10.411 100.546 10.411C99.6685 10.411 98.9562 9.69641 98.9562 8.8158C98.9562 7.93518 99.6685 7.22062 100.546 7.22062C101.424 7.22062 102.137 7.93518 102.137 8.8158ZM49.6308 7.22062H34.8024C34.6358 7.22062 34.5001 7.35668 34.5001 7.52487V11.0795C34.5001 11.2477 34.6358 11.3827 34.8024 11.3827H44.1266L34.2994 23.7102C34.2566 23.7638 34.2332 23.8313 34.2332 23.8998V26.7334C34.2332 26.9016 34.3688 27.0377 34.5354 27.0377H49.4739C49.6415 27.0377 49.7772 26.9016 49.7772 26.7334V23.2067C49.7772 23.0385 49.6415 22.9035 49.4739 22.9035H40.3408L49.8669 10.9531C49.9096 10.8995 49.9331 10.832 49.9331 10.7634V7.52487C49.9331 7.35668 49.7974 7.22062 49.6308 7.22062ZM62.6107 13.9688C63.6616 15.1719 64.1881 16.9095 64.1881 19.185V26.7334C64.1881 26.9016 64.0524 27.0377 63.8848 27.0377H60.4524C60.2847 27.0377 60.1501 26.9016 60.1501 26.7334V25.1222C59.6888 25.825 59.1634 26.3253 58.5728 26.6199C57.9822 26.9156 57.4301 27.0955 56.9132 27.1609C56.3974 27.2252 56.0193 27.2573 55.779 27.2573C55.0966 27.2573 54.4505 27.1652 53.8428 26.9798C53.2352 26.7945 52.6905 26.517 52.211 26.1474C51.7315 25.7778 51.3534 25.315 51.0768 24.7601C50.8002 24.2052 50.6614 23.5581 50.6614 22.8178C50.6614 21.7636 50.8782 20.9269 51.3107 20.3067C51.7443 19.6874 52.3349 19.2246 53.0814 18.9193C53.8279 18.614 54.6812 18.4158 55.6402 18.3226C56.5981 18.2305 57.5945 18.1844 58.6283 18.1844H60.0113C60.0113 17.7227 59.9237 17.3198 59.7486 16.9781C59.5735 16.6364 59.3107 16.3632 58.9604 16.1596C58.6102 15.9561 58.1766 15.8543 57.6597 15.8543C57.2912 15.8543 56.9452 15.9046 56.6216 16.0064C56.2991 16.1082 56.0311 16.2475 55.8207 16.4232C55.6082 16.5989 55.4651 16.8753 55.3914 17.1334H51.3577C51.1687 17.1334 51.0192 16.9588 51.0566 16.7724C51.2018 16.0428 51.4528 15.3744 51.8095 14.8419C52.2249 14.2216 52.7396 13.7181 53.358 13.3292C53.9753 12.9403 54.6716 12.6489 55.4469 12.455C56.2212 12.2601 57.0136 12.1636 57.8252 12.1636C59.9643 12.1636 61.5588 12.7646 62.6096 13.9677L62.6107 13.9688ZM60.0668 20.988H57.3575C57.0616 20.988 56.7712 21.0062 56.486 21.0437C56.2009 21.0812 55.9467 21.1509 55.7246 21.2516C55.5035 21.3533 55.3284 21.4969 55.2002 21.6822C55.071 21.8676 55.0058 22.1075 55.0058 22.4032C55.0058 22.7171 55.0881 22.9817 55.2547 23.1938C55.4202 23.406 55.6455 23.5688 55.9328 23.6791C56.219 23.7906 56.5351 23.8452 56.8865 23.8452C57.4408 23.8452 57.9566 23.7199 58.4361 23.4702C58.9156 23.2206 59.3065 22.8971 59.6119 22.4986C59.9152 22.1011 60.0679 21.6715 60.0679 21.2087V20.9869L60.0668 20.988ZM80.4657 15.8554C80.9356 16.9835 81.1706 18.2605 81.1706 19.6842C81.1706 21.108 80.9228 22.3936 80.4241 23.5409C79.9264 24.6883 79.1895 25.5946 78.2113 26.2599C77.2352 26.9263 76.0273 27.2584 74.5878 27.2584C73.9801 27.2584 73.4077 27.1845 72.8737 27.0366C72.3386 26.8888 71.8602 26.6949 71.4352 26.4538C71.0112 26.2139 70.6694 25.9546 70.4121 25.6771V31.6872C70.4121 31.8554 70.2764 31.9904 70.1088 31.9904H66.3154C66.1477 31.9904 66.0132 31.8543 66.0132 31.6872V12.7186C66.0132 12.5504 66.1488 12.4154 66.3154 12.4154H69.814C69.9657 12.4154 70.0949 12.529 70.1141 12.68L70.301 14.1359C70.946 13.4149 71.6317 12.9007 72.3621 12.5954C73.0905 12.2901 73.9053 12.1379 74.8088 12.1379C76.2292 12.1379 77.4103 12.4754 78.3491 13.1503C79.2899 13.8252 79.9969 14.7273 80.4657 15.8554ZM76.8561 19.7956C76.8561 19.2032 76.7546 18.6258 76.5528 18.0612C76.3488 17.4966 76.0167 17.0392 75.5553 16.6878C75.094 16.3364 74.4671 16.1607 73.6747 16.1607C72.9559 16.1607 72.3515 16.3321 71.8634 16.6739C71.3743 17.0167 71.0058 17.4559 70.757 17.9916C70.5082 18.5283 70.3832 19.1014 70.3832 19.7121C70.3832 20.3227 70.5028 20.8959 70.7431 21.4315C70.9834 21.9683 71.3519 22.4075 71.8485 22.7492C72.3472 23.0921 72.9826 23.2624 73.7569 23.2624C74.5685 23.2624 75.1965 23.0867 75.6386 22.7353C76.0807 22.3839 76.3947 21.9404 76.5795 21.4037C76.7632 20.868 76.8561 20.3313 76.8561 19.7946V19.7956ZM96.9228 15.8554C97.3927 16.9835 97.6277 18.2605 97.6277 19.6842C97.6277 21.108 97.3799 22.3936 96.8812 23.5409C96.3835 24.6883 95.6466 25.5946 94.6684 26.2599C93.6923 26.9263 92.4844 27.2584 91.0448 27.2584C90.4372 27.2584 89.8648 27.1845 89.3308 27.0366C88.7957 26.8888 88.3173 26.6949 87.8923 26.4538C87.4683 26.2139 87.1265 25.9546 86.8692 25.6771V31.6872C86.8692 31.8554 86.7335 31.9904 86.5659 31.9904H82.7725C82.6048 31.9904 82.4703 31.8543 82.4703 31.6872V12.7186C82.4703 12.5504 82.6059 12.4154 82.7725 12.4154H86.2711C86.4228 12.4154 86.552 12.529 86.5712 12.68L86.7581 14.1359C87.4031 13.4149 88.0888 12.9007 88.8192 12.5954C89.5476 12.2901 90.3624 12.1379 91.2659 12.1379C92.6863 12.1379 93.8674 12.4754 94.8062 13.1503C95.747 13.8252 96.454 14.7273 96.9228 15.8554ZM93.3142 19.7956C93.3142 19.2032 93.2128 18.6258 93.0109 18.0612C92.807 17.4966 92.4748 17.0392 92.0135 16.6878C91.5521 16.3364 90.9252 16.1607 90.1328 16.1607C89.4141 16.1607 88.8096 16.3321 88.3216 16.6739C87.8325 17.0167 87.464 17.4559 87.2152 17.9916C86.9664 18.5283 86.8414 19.1014 86.8414 19.7121C86.8414 20.3227 86.961 20.8959 87.2013 21.4315C87.4416 21.9683 87.81 22.4075 88.3066 22.7492C88.8054 23.0921 89.4408 23.2624 90.215 23.2624C91.0267 23.2624 91.6546 23.0867 92.0968 22.7353C92.5389 22.3839 92.8529 21.9404 93.0376 21.4037C93.2213 20.868 93.3142 20.3313 93.3142 19.7946V19.7956ZM101.42 12.4143H99.6739C99.5062 12.4143 99.3717 12.5504 99.3717 12.7175V26.7324C99.3717 26.9006 99.5073 27.0366 99.6739 27.0366H101.42C101.588 27.0366 101.723 26.9006 101.723 26.7324V12.7175C101.723 12.5493 101.588 12.4143 101.42 12.4143ZM116.386 22.8467H114.551C114.421 22.8467 114.311 22.9367 114.272 23.061C114.032 23.7981 113.598 24.3187 112.965 24.623C112.275 24.9561 111.54 25.1222 110.766 25.1222C109.715 25.1222 108.857 24.8769 108.194 24.3862C107.53 23.8966 107.041 23.2442 106.728 22.43C106.414 21.6158 106.258 20.7288 106.258 19.7667C106.258 18.8422 106.409 17.968 106.714 17.1442C107.018 16.3214 107.502 15.6508 108.166 15.1322C108.83 14.6148 109.715 14.3555 110.821 14.3555C111.632 14.3555 112.338 14.5269 112.937 14.8687C113.486 15.1826 113.9 15.6947 114.179 16.406C114.224 16.5207 114.331 16.6021 114.454 16.6021H116.263C116.462 16.6021 116.615 16.406 116.563 16.2132C116.351 15.4226 116.023 14.7519 115.577 14.2023C115.062 13.5638 114.411 13.0785 113.628 12.7454C112.844 12.4122 111.954 12.2461 110.959 12.2461C109.355 12.2461 108.031 12.5836 106.989 13.2585C105.946 13.9334 105.173 14.8408 104.665 15.9775C104.158 17.1152 103.904 18.3783 103.904 19.7656C103.904 21.1905 104.149 22.4664 104.639 23.5945C105.127 24.7226 105.873 25.6054 106.879 26.2439C107.883 26.8824 109.151 27.2016 110.682 27.2016C111.641 27.2016 112.549 27.0495 113.407 26.7442C114.265 26.4388 114.993 25.9632 115.593 25.315C116.114 24.7515 116.479 24.0541 116.686 23.2238C116.733 23.0342 116.581 22.8467 116.386 22.8467ZM131.331 15.8693C131.838 16.9888 132.093 18.2797 132.093 19.7399C132.093 21.183 131.834 22.4686 131.317 23.5966C130.8 24.7247 130.031 25.6075 129.007 26.246C127.985 26.8845 126.698 27.2037 125.15 27.2037C123.618 27.2037 122.337 26.8845 121.304 26.246C120.271 25.6075 119.501 24.7247 118.995 23.5966C118.489 22.4686 118.234 21.183 118.234 19.7399C118.234 18.2787 118.492 16.9888 119.009 15.8693C119.525 14.7508 120.299 13.867 121.333 13.2189C122.366 12.5718 123.656 12.2483 125.205 12.2483C126.737 12.2483 128.013 12.5718 129.036 13.2189C130.059 13.867 130.825 14.7498 131.331 15.8693ZM129.742 19.7399C129.742 18.7404 129.58 17.8351 129.258 17.0199C128.935 16.2068 128.436 15.5586 127.764 15.0776C127.091 14.5966 126.22 14.3566 125.151 14.3566C124.1 14.3566 123.237 14.5977 122.564 15.0776C121.891 15.5586 121.393 16.2068 121.071 17.0199C120.749 17.8341 120.588 18.7404 120.588 19.7399C120.588 20.7395 120.749 21.6447 121.071 22.4589C121.394 23.2731 121.893 23.9202 122.564 24.4012C123.237 24.8822 124.1 25.1222 125.151 25.1222C126.22 25.1222 127.091 24.8822 127.764 24.4012C128.437 23.9202 128.936 23.2731 129.258 22.4589C129.58 21.6447 129.742 20.7384 129.742 19.7399ZM146.488 15.5361C146.147 14.528 145.575 13.7277 144.774 13.1353C143.971 12.544 142.861 12.2472 141.441 12.2472C140.851 12.2472 140.246 12.335 139.629 12.5107C139.012 12.6864 138.445 12.95 137.929 13.3014C137.412 13.6528 136.988 14.0963 136.657 14.633L136.56 12.7014C136.551 12.5397 136.419 12.4133 136.258 12.4133H134.58C134.412 12.4133 134.278 12.5493 134.278 12.7164V26.7656C134.278 26.9338 134.413 27.0688 134.58 27.0688H136.326C136.494 27.0688 136.629 26.9327 136.629 26.7656V20.3484C136.629 19.2204 136.799 18.2026 137.141 17.2963C137.48 16.39 137.988 15.669 138.661 15.1312C139.335 14.5955 140.151 14.3266 141.11 14.3266C141.885 14.3266 142.502 14.4702 142.962 14.7562C143.423 15.0433 143.778 15.4365 144.028 15.9357C144.276 16.4349 144.442 16.9995 144.525 17.6284C144.608 18.2572 144.649 18.915 144.649 19.5985V26.7645C144.649 26.9327 144.785 27.0677 144.952 27.0677H146.697C146.864 27.0677 147 26.9316 147 26.7645V18.96C147 17.6841 146.829 16.5421 146.488 15.534V15.5361Z" fill="#353566"/>
<path d="M11.4145 3.38198C12.9288 1.48162 16.045 2.5054 16.0454 5.03335L16.0434 5.0353V13.2765H21.561C23.7106 13.2766 24.9849 15.809 23.5884 17.5617L12.7602 31.1447C11.2448 33.0441 8.12937 32.0186 8.12937 29.4914V21.2619H2.61082C0.462342 21.2616 -0.811274 18.7293 0.58445 16.9767L11.4145 3.38198ZM28.2915 0.0851055C28.8276 -0.224503 29.4283 0.37641 29.1186 0.914207L27.2094 4.24038C27.1016 4.42786 27.1016 4.65935 27.2094 4.84682L29.1186 8.173C29.4273 8.71079 28.8276 9.31278 28.2915 9.0021L24.9761 7.08706C24.7892 6.97886 24.5585 6.97886 24.3716 7.08706L21.0552 9.0021C20.5191 9.31152 19.9193 8.71075 20.229 8.173L22.1382 4.84682C22.246 4.65935 22.246 4.42786 22.1382 4.24038L20.229 0.914207C19.9204 0.376426 20.5191 -0.225512 21.0552 0.0851055L24.3716 2.00014C24.5584 2.10831 24.7892 2.10833 24.9761 2.00014L28.2915 0.0851055Z" fill="url(#paint0_linear_124_3873)"/>
</g>
<defs>
<linearGradient id="paint0_linear_124_3873" x1="-2.50012" y1="39.7503" x2="42.82" y2="-5.42993" gradientUnits="userSpaceOnUse">
<stop stop-color="#00B6F1"/>
<stop offset="0.35" stop-color="#5555DB"/>
<stop offset="0.85" stop-color="#FF6DB0"/>
</linearGradient>
<clipPath id="clip0_124_3873">
<rect width="147" height="32" fill="white"/>
</clipPath>
</defs>
</svg>
